<svg width="160" height="57" viewBox="0 0 160 57" fill="none" xmlns="http://www.w3.org/2000/svg">
<path d="M143.85 14.7182C143.415 14.7499 143.008 14.9451 142.712 15.2647C142.416 15.5842 142.251 16.0043 142.253 16.4401H145.279C145.31 16.2313 145.296 16.0185 145.239 15.8152C145.182 15.6119 145.083 15.4229 144.948 15.2605C144.813 15.098 144.646 14.9658 144.457 14.8724C144.267 14.7789 144.06 14.7264 143.85 14.7182ZM76.1675 18.58C76.1538 18.7145 76.1698 18.8504 76.2144 18.978C76.259 19.1056 76.331 19.2218 76.4254 19.3185C76.5199 19.4152 76.6344 19.49 76.7609 19.5376C76.8874 19.5853 77.0227 19.6046 77.1575 19.5942C77.4596 19.5979 77.7552 19.5058 78.0019 19.3313C78.2486 19.1568 78.4337 18.9087 78.5309 18.6226C78.566 18.4953 78.5804 18.3633 78.5734 18.2314V17.2654C77.3412 17.252 76.1781 17.5101 76.1781 18.58H76.1675ZM109.665 14.7928C108.436 14.7928 107.94 16.0196 107.94 17.188C107.94 18.5481 108.603 19.5835 109.652 19.5835C110.642 19.5835 111.334 18.5987 111.334 17.1695C111.334 16.0703 110.855 14.7981 109.665 14.7981V14.7928ZM97.9732 14.7236C97.5385 14.7552 97.132 14.9505 96.8356 15.27C96.5393 15.5896 96.3751 16.0097 96.3762 16.4455H99.4024C99.4332 16.2367 99.4197 16.0237 99.3627 15.8204C99.3058 15.6171 99.2067 15.4282 99.0719 15.2658C98.937 15.1034 98.7695 14.9712 98.5802 14.8777C98.3909 14.7843 98.1841 14.7318 97.9732 14.7236ZM85.4481 14.8966C85.0823 14.9084 84.7311 15.0433 84.4514 15.2795C84.1718 15.5156 83.98 15.8394 83.9071 16.1981C83.8705 16.3498 83.8508 16.505 83.8485 16.6611V17.8029C83.8489 17.945 83.8631 18.0867 83.8911 18.2261C83.9708 18.5768 84.1666 18.8903 84.4468 19.1159C84.727 19.3415 85.0751 19.4659 85.4348 19.4689C86.5234 19.4689 87.1887 18.5853 87.1887 17.1534C87.1887 15.9105 86.6085 14.8966 85.4481 14.8966ZM146.886 37.8972H137.957C137.937 38.475 138.042 39.0504 138.266 39.5834C138.49 40.1165 138.826 40.5946 139.253 40.9847C140.078 41.6523 141.12 41.9933 142.181 41.9428C143.414 41.9615 144.639 41.74 145.787 41.2907L146.256 43.404C144.835 43.9985 143.305 44.2851 141.766 44.2449C140.867 44.2943 139.968 44.154 139.127 43.833C138.286 43.512 137.522 43.0175 136.884 42.3819C135.653 41.0084 135.014 39.2044 135.106 37.3623C135.04 35.505 135.624 33.6829 136.757 32.2097C137.307 31.4995 138.019 30.9303 138.833 30.549C139.647 30.1677 140.54 29.9852 141.438 30.0165C142.295 29.9702 143.15 30.1482 143.917 30.5328C144.684 30.9173 145.338 31.4953 145.814 32.2097C146.822 33.924 147.199 35.9371 146.878 37.9L146.886 37.8972ZM134.611 16.4908V20.7146H132.871V10.4465H134.611V14.6251H134.638C134.853 14.289 135.151 14.0138 135.503 13.8265C135.869 13.6152 136.284 13.505 136.706 13.5072C137.88 13.5072 139.101 14.3057 139.101 16.56V20.7092H137.358V16.7463C137.358 15.735 136.991 14.9525 136.027 14.9525C135.725 14.9572 135.433 15.0558 135.189 15.2346C134.946 15.4135 134.765 15.6638 134.67 15.9505C134.616 16.1226 134.592 16.3026 134.598 16.4829L134.611 16.4908ZM134.146 32.9841C133.837 32.9305 133.525 32.9047 133.211 32.9069C132.738 32.8867 132.268 32.987 131.844 33.1983C131.421 33.4097 131.058 33.7253 130.79 34.1153C130.267 34.9147 130.007 35.8573 130.047 36.8114V43.9974H127.074V34.6157C127.074 33.0489 127.047 31.6152 126.994 30.3146H129.581L129.69 32.9335H129.773C130.048 32.084 130.564 31.3324 131.258 30.7698C131.875 30.2959 132.631 30.0395 133.408 30.0406C133.655 30.0382 133.902 30.0551 134.146 30.0911V32.9841ZM126.518 13.6589H127.492V12.3415L129.206 11.8491V13.6589H130.859V14.9897H129.206V18.1143C129.206 18.9819 129.432 19.4158 130.095 19.4158C130.324 19.4259 130.554 19.4016 130.776 19.3438L130.803 20.6879C130.397 20.8227 129.971 20.8867 129.544 20.877C129.267 20.8912 128.991 20.8469 128.733 20.7469C128.475 20.6469 128.24 20.4935 128.045 20.2967C127.617 19.7305 127.419 19.0229 127.492 18.3165V15.003H126.518V13.6589ZM123.444 42.2196C122.831 42.9048 122.074 43.4462 121.227 43.805C120.381 44.1639 119.465 44.3314 118.547 44.2955C117.664 44.3335 116.784 44.1741 115.971 43.8288C115.158 43.4834 114.432 42.9609 113.846 42.2993C112.658 40.8954 112.037 39.0989 112.103 37.2611C112.025 35.3614 112.669 33.5027 113.905 32.058C114.515 31.3835 115.266 30.8525 116.106 30.5032C116.945 30.1539 117.851 29.995 118.76 30.0378C119.648 30.0009 120.533 30.1607 121.353 30.5058C122.172 30.8509 122.905 31.3726 123.5 32.0339C124.672 33.4308 125.28 35.2156 125.203 37.0376C125.28 38.9233 124.653 40.7703 123.444 42.2196ZM109.575 20.8609C109.102 20.8746 108.632 20.7889 108.194 20.609C107.757 20.4291 107.362 20.1591 107.036 19.8167C106.709 19.4744 106.459 19.0671 106.3 18.6216C106.142 18.1761 106.078 17.7023 106.115 17.2308C106.074 16.7448 106.138 16.2558 106.3 15.7962C106.463 15.3366 106.722 14.9168 107.059 14.5645C107.396 14.2123 107.804 13.9357 108.256 13.753C108.708 13.5702 109.194 13.4856 109.681 13.5046C110.151 13.4918 110.618 13.5781 111.052 13.758C111.487 13.9379 111.878 14.2072 112.201 14.5485C112.524 14.8897 112.772 15.2952 112.928 15.7385C113.084 16.1819 113.145 16.6532 113.106 17.1216C113.147 17.6059 113.084 18.0931 112.924 18.5518C112.763 19.0104 112.507 19.43 112.174 19.7833C111.84 20.1365 111.436 20.4156 110.987 20.6021C110.538 20.7887 110.055 20.8788 109.569 20.8663L109.575 20.8609ZM111.246 32.5929H107.964V39.2467C107.964 40.9314 108.547 41.7698 109.702 41.7698C110.15 41.7821 110.597 41.7374 111.033 41.6367L111.118 43.9389C110.374 44.1879 109.59 44.3024 108.806 44.2769C108.295 44.3058 107.784 44.2225 107.309 44.0331C106.834 43.8437 106.407 43.5527 106.056 43.1804C105.288 42.1141 104.934 40.8048 105.061 39.4968V32.5929H103.107V30.3174H105.061V27.8155L107.988 26.9159V30.3174H111.262L111.246 32.5929ZM100.765 42.6107C99.3521 43.7874 97.5435 44.3805 95.7082 44.269C94.0257 44.349 92.356 43.9393 90.9015 43.0898L91.5908 40.5587C92.8834 41.3414 94.3675 41.7505 95.8785 41.7405C96.8153 41.7971 97.7422 41.523 98.4975 40.966C98.8029 40.7157 99.046 40.3979 99.2077 40.0376C99.3693 39.6774 99.4451 39.2846 99.429 38.8901C99.4374 38.5331 99.3739 38.1779 99.2422 37.8459C99.1105 37.5139 98.9134 37.212 98.6625 36.9578C97.9182 36.2998 97.0468 35.8016 96.1021 35.494C92.8586 34.2608 91.236 32.4527 91.2342 30.0698C91.2137 29.3436 91.3572 28.6222 91.654 27.9591C91.9507 27.2961 92.3931 26.7084 92.9482 26.2398C94.2328 25.1989 95.856 24.6682 97.5073 24.7494C98.9633 24.7001 100.409 25.0091 101.718 25.649L100.967 28.1242C99.8757 27.5328 98.6503 27.2321 97.4089 27.2512C96.5182 27.2069 95.6422 27.4909 94.947 28.0496C94.7101 28.2689 94.5218 28.5355 94.3943 28.8321C94.2669 29.1287 94.2031 29.4489 94.2071 29.7717C94.2006 30.1262 94.2737 30.4775 94.4211 30.8C94.5685 31.1224 94.7865 31.4078 95.0588 31.6348C95.873 32.261 96.7823 32.7525 97.7522 33.0906C99.0937 33.5713 100.302 34.3629 101.279 35.4008C102.044 36.3215 102.446 37.4909 102.407 38.6877C102.433 39.424 102.299 40.1572 102.015 40.837C101.731 41.5168 101.304 42.1274 100.762 42.6268L100.765 42.6107ZM85.8021 20.8822C85.3614 20.9034 84.9236 20.8007 84.5383 20.5857C84.153 20.3708 83.8357 20.0521 83.6223 19.666H83.593L83.5105 20.7305H82.0227C82.052 20.2514 82.0813 19.4716 82.0813 18.7477V10.4625H83.8193V14.657H83.8485C84.0843 14.2912 84.4125 13.9942 84.8 13.796C85.1874 13.5978 85.6204 13.5055 86.0549 13.5285C87.7397 13.5285 88.9426 14.9605 88.9267 17.1003C88.9883 17.5573 88.9549 18.0222 88.8285 18.4657C88.702 18.9092 88.4853 19.3217 88.1919 19.6775C87.8986 20.0333 87.5349 20.3247 87.1237 20.5334C86.7124 20.7421 86.2625 20.8637 85.8021 20.8903V20.8822ZM83.7607 42.5282C83.2427 43.1067 82.606 43.5667 81.8941 43.8767C81.1822 44.1867 80.4117 44.3396 79.6353 44.3249C78.8819 44.3848 78.1266 44.2348 77.4533 43.8913C76.78 43.5478 76.2152 43.0244 75.8215 42.3793V49.5654H72.8459V34.8392C72.8459 33.3771 72.8095 31.8796 72.7368 30.3466H75.345L75.518 32.513H75.5686C76.0098 31.8121 76.6112 31.2263 77.3233 30.8034C78.0353 30.3805 78.8377 30.1328 79.6642 30.0808C80.4907 30.0289 81.3177 30.174 82.0771 30.5043C82.8366 30.8346 83.5067 31.3407 84.0322 31.9808C85.1477 33.4143 85.7141 35.1993 85.6291 37.0137C85.7402 39.0239 85.073 40.9997 83.766 42.531L83.7607 42.5282ZM72.1619 20.7332H70.4239V10.4678H72.1619V20.7332ZM69.0692 42.531C68.5516 43.1094 67.9155 43.5692 67.204 43.8793C66.4925 44.1893 65.7225 44.3422 64.9465 44.3275C64.1923 44.3881 63.4359 44.2383 62.7617 43.8949C62.0874 43.5514 61.5217 43.0277 61.1273 42.3819V49.568H58.157V34.8418C58.157 33.3797 58.1188 31.8822 58.0425 30.3492H60.6588L60.8212 32.5157H60.8744C61.3165 31.8148 61.9186 31.2288 62.6314 30.806C63.3441 30.3832 64.147 30.1356 64.9741 30.0836C65.8011 30.0316 66.6288 30.1768 67.3888 30.5071C68.1489 30.8374 68.8196 31.3433 69.346 31.9834C70.4525 33.4208 71.0127 35.2043 70.9269 37.0163C71.038 39.0265 70.3709 41.0023 69.0639 42.5336L69.0692 42.531ZM57.4251 18.7984C57.4251 17.0338 58.9661 16.1209 61.5132 16.1368V15.9851C61.5132 15.522 61.3295 14.7528 60.1132 14.7528C59.4551 14.756 58.8106 14.9402 58.2501 15.2851L57.9095 14.13C58.669 13.7028 59.5295 13.4877 60.4007 13.5072C60.7955 13.4683 61.194 13.5198 61.566 13.6578C61.938 13.7958 62.2737 14.0166 62.5476 14.3036C62.8216 14.5907 63.0265 14.9364 63.1471 15.3144C63.2676 15.6924 63.3004 16.0929 63.2431 16.4855V19.0165C63.2303 19.583 63.2686 20.1496 63.3576 20.7092H61.7846L61.6595 19.9295H61.617C61.3735 20.2337 61.0626 20.4771 60.7087 20.6402C60.3548 20.8032 59.9677 20.8815 59.5783 20.8689C59.2962 20.8824 59.0143 20.838 58.7501 20.7383C58.4858 20.6385 58.2448 20.4855 58.042 20.2889C57.8392 20.0924 57.6789 19.8565 57.5709 19.5955C57.463 19.3345 57.4097 19.0541 57.4144 18.7717L57.4251 18.7984ZM53.832 20.7092H52.1207L49.5577 13.6669H51.442L52.5572 17.2387C52.7568 17.8588 52.8979 18.423 53.0256 19.0032H53.0682C53.196 18.423 53.3503 17.8748 53.5339 17.2387L54.6385 13.6669H56.4643L53.832 20.7092ZM53.156 43.9948L51.4234 38.4296H45.3951L43.7423 43.9948H40.6629L46.63 25.0341H50.3216L56.3232 43.9948H53.156ZM32.1514 43.2815C32.1585 44.0975 31.8417 44.8831 31.2704 45.4659C30.6991 46.0486 29.92 46.3811 29.104 46.3902H16.036C15.2195 46.3818 14.4398 46.0497 13.8679 45.4669C13.2961 44.884 12.9788 44.098 12.9859 43.2815V13.5897C12.9781 12.7725 13.2949 11.9856 13.8668 11.4017C14.4386 10.8179 15.2188 10.4849 16.036 10.4758H29.104C29.9207 10.4856 30.7002 10.8189 31.2715 11.4027C31.8428 11.9865 32.1592 12.7729 32.1514 13.5897V43.2815ZM43.7396 10.9628H45.962L49.0599 20.7092H47.1783L46.316 17.9466H43.3005L42.4807 20.7092H40.6843L43.7396 10.9628ZM67.6746 20.7092H65.9366V13.6669H67.6746V20.7092ZM66.8122 10.7313C67.002 10.7339 67.1867 10.7926 67.3433 10.8998C67.4998 11.007 67.6212 11.158 67.6923 11.334C67.7633 11.5099 67.7809 11.7029 67.7426 11.8887C67.7044 12.0746 67.6121 12.245 67.4774 12.3787C67.3426 12.5123 67.1715 12.6032 66.9853 12.6399C66.7991 12.6766 66.6063 12.6575 66.4309 12.585C66.2555 12.5125 66.1054 12.3899 65.9995 12.2325C65.8936 12.075 65.8365 11.8899 65.8354 11.7001C65.8317 11.5712 65.8545 11.4429 65.9024 11.3231C65.9502 11.2033 66.0222 11.0947 66.1138 11.0039C66.2054 10.9131 66.3146 10.842 66.4347 10.7952C66.5548 10.7483 66.6833 10.7265 66.8122 10.7313ZM77.1016 14.7635C76.4435 14.7663 75.7989 14.9504 75.2386 15.2957L74.8979 14.1407C75.6566 13.7139 76.516 13.4987 77.3864 13.5179C77.7814 13.4786 78.1802 13.5297 78.5526 13.6675C78.9249 13.8053 79.261 14.0262 79.5352 14.3132C79.8094 14.6003 80.0147 14.9461 80.1354 15.3243C80.256 15.7025 80.2889 16.1033 80.2315 16.4962V19.0272C80.2193 19.5937 80.2567 20.16 80.3434 20.7199H78.773L78.6479 19.94H78.6054C78.3619 20.2443 78.0509 20.4876 77.6971 20.6507C77.3432 20.8138 76.9561 20.8922 76.5667 20.8796C76.2846 20.8931 76.0027 20.8486 75.7384 20.7488C75.4742 20.6491 75.2332 20.4962 75.0304 20.2997C74.8276 20.1031 74.6674 19.867 74.5594 19.606C74.4515 19.345 74.3981 19.0647 74.4028 18.7823C74.4028 17.0177 75.9439 16.1048 78.4909 16.1208V15.9851C78.4909 15.522 78.3073 14.7528 77.091 14.7528L77.1016 14.7635ZM90.8909 10.4305H92.6289V20.6959H90.8909V10.4305ZM98.0237 13.4966C98.4518 13.5033 98.8736 13.6002 99.2617 13.7811C99.6497 13.9619 99.9952 14.2226 100.276 14.5462C100.556 14.8697 100.765 15.2489 100.889 15.6588C101.012 16.0686 101.048 16.4999 100.994 16.9245C100.996 17.1758 100.977 17.427 100.938 17.6752H96.3576C96.361 17.9404 96.4209 18.2016 96.5333 18.4418C96.6458 18.6819 96.8082 18.8954 97.0098 19.0677C97.2113 19.24 97.4474 19.3674 97.7021 19.4411C97.9568 19.5149 98.2243 19.5335 98.4868 19.4956C99.1376 19.5054 99.7849 19.3982 100.398 19.179L100.664 20.3952C99.9037 20.7038 99.089 20.856 98.2686 20.8424C97.792 20.8811 97.3128 20.8156 96.8641 20.6506C96.4155 20.4855 96.0081 20.2247 95.6702 19.8864C95.3324 19.5481 95.0723 19.1402 94.9079 18.6913C94.7435 18.2424 94.6787 17.7631 94.7182 17.2866C94.6727 16.8131 94.7253 16.3351 94.8728 15.8828C95.0203 15.4305 95.2596 15.0135 95.5755 14.6578C95.8915 14.3021 96.2774 14.0155 96.7092 13.8157C97.1409 13.6159 97.6093 13.5072 98.0849 13.4966H98.0237ZM116.359 13.6563L116.441 14.7208H116.487C116.715 14.3424 117.04 14.0312 117.427 13.8181C117.814 13.605 118.251 13.4977 118.693 13.5072C119.896 13.5072 121.139 14.3057 121.139 16.528V20.7092H119.401V16.7303C119.401 15.7189 119.031 14.9525 118.084 14.9525C117.776 14.9619 117.48 15.0677 117.236 15.2549C116.993 15.4422 116.814 15.7013 116.726 15.9957C116.665 16.1773 116.636 16.3684 116.641 16.56V20.7092H114.9V15.7642C114.9 14.9524 114.871 14.2737 114.844 13.6669L116.359 13.6563ZM143.972 13.4966C144.4 13.5033 144.822 13.6002 145.21 13.7811C145.598 13.9619 145.943 14.2226 146.224 14.5462C146.504 14.8697 146.713 15.2489 146.837 15.6588C146.961 16.0686 146.997 16.4999 146.942 16.9245C146.944 17.1758 146.925 17.427 146.886 17.6752H142.274C142.277 17.9404 142.337 18.2016 142.45 18.4418C142.562 18.6819 142.725 18.8954 142.926 19.0677C143.128 19.24 143.364 19.3674 143.618 19.4411C143.873 19.5149 144.141 19.5335 144.403 19.4956C145.054 19.5054 145.701 19.3982 146.314 19.179L146.567 20.3952C145.807 20.7038 144.992 20.856 144.172 20.8424C143.695 20.8815 143.215 20.8163 142.766 20.6514C142.317 20.4865 141.91 20.2257 141.571 19.8874C141.233 19.549 140.973 19.1411 140.808 18.6919C140.644 18.2428 140.579 17.7633 140.618 17.2866C140.573 16.8128 140.626 16.3346 140.773 15.8821C140.921 15.4296 141.161 15.0125 141.477 14.6568C141.793 14.3011 142.179 14.0145 142.611 13.8148C143.043 13.6152 143.512 13.5069 143.988 13.4966H143.972ZM153.277 0.00276157H6.76069C4.94678 0.0245177 3.21566 0.765611 1.948 2.06322C0.680336 3.36083 -0.0201508 5.10869 0.000441498 6.92261V49.946C-0.0158884 51.7569 0.686567 53.5003 1.95385 54.794C3.22113 56.0877 4.94981 56.8261 6.76069 56.8471H153.239C155.05 56.8268 156.78 56.0887 158.047 54.7948C159.314 53.5009 160.017 51.7571 160 49.946V6.92001C160.02 5.10609 159.32 3.35823 158.052 2.06062C156.784 0.763012 155.053 0.0217561 153.239 0L153.277 0.00276157ZM45.3126 14.1886C45.1289 13.5951 44.9719 12.9298 44.8308 12.3655H44.8016C44.6605 12.9298 44.5061 13.6084 44.3491 14.1886L43.6145 16.5839H46.0605L45.3126 14.1886ZM61.5318 18.612C61.567 18.4848 61.5814 18.3526 61.5744 18.2207V17.2546C60.3421 17.2413 59.179 17.4995 59.179 18.5695C59.1654 18.7039 59.1814 18.8397 59.226 18.9673C59.2706 19.0949 59.3426 19.2111 59.437 19.3078C59.5315 19.4045 59.646 19.4793 59.7725 19.5269C59.899 19.5745 60.0343 19.5939 60.1691 19.5835C60.4708 19.5866 60.7657 19.4943 61.0119 19.3198C61.258 19.1453 61.4428 18.8977 61.5398 18.612H61.5318ZM141.212 32.1059C140.746 32.1025 140.286 32.2141 139.873 32.4309C139.461 32.6477 139.108 32.963 138.846 33.3488C138.338 34.0372 138.033 34.854 137.965 35.7068H144.158C144.195 34.8905 143.996 34.0809 143.583 33.3754C143.342 32.9675 142.993 32.6336 142.575 32.4098C142.157 32.186 141.686 32.0809 141.212 32.1059ZM48.4319 27.552H48.3787C48.1923 28.3505 47.9022 29.5481 47.495 31.1237L45.954 36.0769H50.9337L49.3714 31.1237C49.2037 30.6154 48.887 29.4258 48.4319 27.552ZM79.1483 32.4438C78.4159 32.4419 77.7075 32.7059 77.1548 33.1865C76.5566 33.6919 76.1437 34.382 75.9811 35.148C75.9014 35.4524 75.8567 35.7649 75.848 36.0795V38.355C75.8196 39.2771 76.1378 40.1764 76.7397 40.8755C77.0261 41.2078 77.3831 41.4719 77.7846 41.6487C78.1861 41.8255 78.6219 41.9104 79.0605 41.8974C79.5746 41.9173 80.0853 41.8054 80.5441 41.5726C81.0029 41.3397 81.3946 40.9934 81.6821 40.5667C82.3517 39.5293 82.6793 38.3082 82.6189 37.0749C82.6652 35.9153 82.358 34.7689 81.738 33.7878C81.4546 33.363 81.0688 33.0163 80.6163 32.7795C80.1637 32.5428 79.659 32.4237 79.1483 32.4332V32.4438ZM118.669 32.2443C118.108 32.2299 117.555 32.3752 117.073 32.6631C116.592 32.951 116.202 33.3695 115.949 33.8704C115.387 34.8686 115.111 36.0021 115.15 37.1467C115.115 38.2749 115.391 39.391 115.949 40.3724C116.204 40.8653 116.59 41.2782 117.064 41.5654C117.539 41.8526 118.084 42.0028 118.639 41.9995C119.194 41.9962 119.737 41.8395 120.208 41.5467C120.679 41.2539 121.061 40.8365 121.309 40.3406C121.884 39.3569 122.171 38.2321 122.14 37.0934C122.17 35.9666 121.894 34.8526 121.341 33.8704C121.093 33.3752 120.71 32.9599 120.236 32.6723C119.763 32.3847 119.218 32.2365 118.664 32.2443H118.669ZM64.4408 32.4332C63.7094 32.4322 63.0022 32.6959 62.45 33.1758C61.8508 33.6798 61.4383 34.3706 61.2789 35.1373C61.1985 35.4416 61.153 35.7541 61.1432 36.0687V38.3444C61.1148 39.2665 61.4329 40.1657 62.0348 40.8648C62.3222 41.1973 62.6802 41.4617 63.0826 41.6385C63.485 41.8153 63.9217 41.9001 64.361 41.8869C64.8743 41.9058 65.3838 41.7935 65.8416 41.5607C66.2994 41.3278 66.6903 40.9821 66.9773 40.5561C67.6448 39.5179 67.9714 38.2971 67.9114 37.0642C67.9599 35.9047 67.6535 34.7581 67.0332 33.7773C66.7495 33.352 66.3634 33.0049 65.9103 32.7682C65.4573 32.5314 64.9519 32.4125 64.4408 32.4225V32.4332ZM14.8703 40.0956H30.331V16.7569H14.8703V40.0956ZM22.5886 41.477C22.2682 41.4696 21.9528 41.5578 21.6827 41.7305C21.4126 41.9031 21.2 42.1524 21.0722 42.4464C20.9444 42.7403 20.9071 43.0658 20.9651 43.3811C21.023 43.6963 21.1737 43.9872 21.3977 44.2165C21.6217 44.4458 21.9089 44.6031 22.2227 44.6684C22.5366 44.7338 22.8628 44.7041 23.1597 44.5832C23.4566 44.4623 23.7107 44.2557 23.8897 43.9897C24.0686 43.7238 24.1642 43.4104 24.1643 43.0898C24.1685 42.6672 24.0051 42.2602 23.7098 41.9579C23.4144 41.6556 23.0112 41.4827 22.5886 41.477ZM21.0742 14.3296H24.103C24.1947 14.3218 24.2801 14.2798 24.3423 14.212C24.4046 14.1443 24.4391 14.0557 24.4391 13.9636C24.4391 13.8716 24.4046 13.783 24.3423 13.7153C24.2801 13.6475 24.1947 13.6055 24.103 13.5977H21.0742C20.9826 13.6055 20.8972 13.6475 20.835 13.7153C20.7727 13.783 20.7382 13.8716 20.7382 13.9636C20.7382 14.0557 20.7727 14.1443 20.835 14.212C20.8972 14.2798 20.9826 14.3218 21.0742 14.3296Z" fill="white"/>
</svg>
