<svg width="60" height="50" viewBox="0 0 60 50" fill="none" xmlns="http://www.w3.org/2000/svg">
<path d="M43.084 39.4233H5.53803C2.44049 39.4233 0 36.889 0 33.8853V5.53804C0 2.44049 2.53435 0 5.53803 0H54.0663C57.1638 0 59.6043 2.53436 59.6043 5.53804V30.8816C59.6043 31.7264 58.9472 32.3834 58.1024 32.3834C57.2577 32.3834 56.6006 31.7264 56.6006 30.8816V11.0761H3.00369V33.7914C3.00369 35.1994 4.13006 36.3258 5.53803 36.3258H43.084C43.9288 36.3258 44.5859 36.9828 44.5859 37.8276C44.5859 38.6724 43.9288 39.4233 43.084 39.4233ZM3.00369 8.0724H56.6006V5.53804C56.6006 4.13006 55.4742 3.00369 54.0663 3.00369H5.53803C4.13006 3.00369 3.00369 4.13006 3.00369 5.53804V8.0724Z" fill="#3B2E2D"/>
<path d="M37.9214 49.6546C35.6687 49.6546 33.7914 47.7773 33.7914 45.5245C33.7914 43.2718 35.6687 41.3945 37.9214 41.3945C40.1742 41.3945 42.0515 43.2718 42.0515 45.5245C41.9577 47.7773 40.1742 49.6546 37.9214 49.6546ZM37.9214 44.492C37.3582 44.492 36.8889 44.9613 36.8889 45.5245C36.8889 46.0877 37.3582 46.557 37.9214 46.557C38.4846 46.557 38.954 46.0877 38.954 45.5245C38.954 44.9613 38.4846 44.492 37.9214 44.492ZM58.1024 39.4233H50.03C49.1853 39.4233 48.5282 38.7662 48.5282 37.9215C48.5282 37.0767 49.1853 36.4196 50.03 36.4196H58.1024C58.9472 36.4196 59.6043 37.0767 59.6043 37.9215C59.6043 38.7662 58.9472 39.4233 58.1024 39.4233ZM25.719 25.8129C23.4662 25.8129 21.5889 23.9356 21.5889 21.6828C21.5889 19.43 23.4662 17.5527 25.719 17.5527C27.9717 17.5527 29.8491 19.43 29.8491 21.6828C29.8491 23.9356 27.9717 25.8129 25.719 25.8129ZM25.719 20.6503C25.1558 20.6503 24.6865 21.1196 24.6865 21.6828C24.6865 22.246 25.1558 22.7153 25.719 22.7153C26.2822 22.7153 26.7515 22.246 26.7515 21.6828C26.7515 21.1196 26.376 20.6503 25.719 20.6503ZM13.7043 25.8129C11.4515 25.8129 9.57422 23.9356 9.57422 21.6828C9.57422 19.43 11.4515 17.5527 13.7043 17.5527C15.957 17.5527 17.8343 19.43 17.8343 21.6828C17.8343 23.9356 16.0509 25.8129 13.7043 25.8129ZM13.7043 20.6503C13.1411 20.6503 12.6718 21.1196 12.6718 21.6828C12.6718 22.246 13.1411 22.7153 13.7043 22.7153C14.2675 22.7153 14.7368 22.246 14.7368 21.6828C14.7368 21.1196 14.3613 20.6503 13.7043 20.6503Z" fill="#EA5A00"/>
<path d="M37.9216 25.8129C35.6688 25.8129 33.7915 23.9356 33.7915 21.6828C33.7915 19.43 35.6688 17.5527 37.9216 17.5527C40.1743 17.5527 42.0516 19.43 42.0516 21.6828C42.0516 23.9356 40.1743 25.8129 37.9216 25.8129ZM37.9216 20.6503C37.3584 20.6503 36.8891 21.1196 36.8891 21.6828C36.8891 22.246 37.3584 22.7153 37.9216 22.7153C38.4847 22.7153 38.9541 22.246 38.9541 21.6828C38.9541 21.1196 38.4847 20.6503 37.9216 20.6503Z" fill="#3B2E2D"/>
</svg>
