<svg width="42" height="64" viewBox="0 0 42 64" fill="none" xmlns="http://www.w3.org/2000/svg">
<path d="M40.09 64H1.8425C1.35397 63.9996 0.885567 63.805 0.540123 63.459C0.194679 63.1131 0.000423889 62.6439 0 62.1547V1.84534C0.000423889 1.35605 0.194679 0.88693 0.540123 0.540954C0.885567 0.194979 1.35397 0.000424541 1.8425 0H40.09C40.5785 0.000424541 41.0469 0.194979 41.3924 0.540954C41.7378 0.88693 41.9321 1.35605 41.9325 1.84534V62.1547C41.9321 62.6439 41.7378 63.1131 41.3924 63.459C41.0469 63.805 40.5785 63.9996 40.09 64ZM3.6866 60.3125H38.2459V53.9476H3.6866V60.3125ZM3.6866 50.2618H38.2459V3.69228H3.6866V50.2618ZM22.9616 59.0796H18.9725C18.7216 59.0945 18.4703 59.0578 18.2341 58.9718C17.9979 58.8859 17.7817 58.7525 17.5989 58.5798C17.416 58.4071 17.2703 58.1989 17.1707 57.9678C17.0711 57.7367 17.0198 57.4876 17.0198 57.2359C17.0198 56.9842 17.0711 56.7351 17.1707 56.504C17.2703 56.2729 17.416 56.0647 17.5989 55.892C17.7817 55.7193 17.9979 55.5859 18.2341 55.5C18.4703 55.414 18.7216 55.3773 18.9725 55.3922H22.9616C23.2125 55.3773 23.4638 55.414 23.7 55.5C23.9362 55.5859 24.1524 55.7193 24.3352 55.892C24.5181 56.0647 24.6638 56.2729 24.7634 56.504C24.863 56.7351 24.9143 56.9842 24.9143 57.2359C24.9143 57.4876 24.863 57.7367 24.7634 57.9678C24.6638 58.1989 24.5181 58.4071 24.3352 58.5798C24.1524 58.7525 23.9362 58.8859 23.7 58.9718C23.4638 59.0578 23.2125 59.0945 22.9616 59.0796Z" fill="#3B2E2D"/>
<path d="M31.0665 41.0895H10.8678C10.6256 41.0893 10.3859 41.0413 10.1622 40.9483C9.93854 40.8553 9.73536 40.7191 9.56427 40.5474C9.39318 40.3758 9.25752 40.1721 9.16504 39.9479C9.07256 39.7237 9.02507 39.4835 9.02528 39.241V29.3586C9.01493 29.11 9.05488 28.8619 9.14272 28.6291C9.23057 28.3964 9.3645 28.1839 9.53646 28.0043C9.70843 27.8247 9.91487 27.6819 10.1434 27.5843C10.3719 27.4866 10.6178 27.4363 10.8662 27.4363C11.1146 27.4363 11.3605 27.4866 11.589 27.5843C11.8175 27.6819 12.0239 27.8247 12.1959 28.0043C12.3679 28.1839 12.5018 28.3964 12.5896 28.6291C12.6775 28.8619 12.7174 29.11 12.7071 29.3586V37.3973H29.2224V29.3586C29.212 29.11 29.2519 28.8619 29.3398 28.6291C29.4276 28.3964 29.5616 28.1839 29.7335 28.0043C29.9055 27.8247 30.1119 27.6819 30.3405 27.5843C30.569 27.4866 30.8148 27.4363 31.0632 27.4363C31.3117 27.4363 31.5575 27.4866 31.786 27.5843C32.0146 27.6819 32.221 27.8247 32.393 28.0043C32.5649 28.1839 32.6989 28.3964 32.7867 28.6291C32.8746 28.8619 32.9145 29.11 32.9042 29.3586V39.241C32.905 39.7301 32.7119 40.1996 32.3673 40.5462C32.0227 40.8928 31.5548 41.0883 31.0665 41.0895ZM20.9815 33.7146H20.9671C20.6947 33.715 20.4255 33.6549 20.1791 33.5384C19.9328 33.422 19.7153 33.2521 19.5424 33.0412L14.6616 28.1321C14.4827 27.9621 14.3396 27.7579 14.2408 27.5316C14.142 27.3053 14.0896 27.0614 14.0866 26.8144C14.0836 26.5675 14.1301 26.3224 14.2233 26.0937C14.3165 25.865 14.4546 25.6574 14.6294 25.4831C14.8041 25.3088 15.012 25.1714 15.2408 25.0791C15.4695 24.9867 15.7144 24.9412 15.961 24.9452C16.2076 24.9493 16.4508 25.0029 16.6764 25.1028C16.9019 25.2027 17.1052 25.3469 17.2741 25.5268L19.123 27.3866V15.4408C19.1507 14.9706 19.3567 14.5288 19.6989 14.2057C20.0411 13.8826 20.4936 13.7026 20.9639 13.7026C21.4342 13.7026 21.8867 13.8826 22.2289 14.2057C22.5711 14.5288 22.7771 14.9706 22.8048 15.4408V27.4042L24.6521 25.538C24.9962 25.1898 25.4644 24.9927 25.9535 24.9902C26.4427 24.9876 26.9129 25.1798 27.2606 25.5244C27.6083 25.869 27.8051 26.3379 27.8076 26.8278C27.8102 27.3178 27.6183 27.7887 27.2742 28.1369L22.2862 33.1759C22.1152 33.3489 21.9118 33.4862 21.6876 33.58C21.4634 33.6739 21.2229 33.7223 20.9799 33.7226L20.9815 33.7146Z" fill="#EA5A00"/>
</svg>
