<svg width="161" height="58" viewBox="0 0 161 58" fill="none" xmlns="http://www.w3.org/2000/svg">
<rect width="161" height="58" fill="#E5E5E5"/>
<g clip-path="url(#clip0_0:1)">
<rect width="1920" height="3455" transform="translate(-1070 -3049)" fill="white"/>
<path d="M853 210H-1073V-266C-1073 -266 -729.059 -265.663 -501.5 -216.063C-273.941 -166.463 -63.5 -166.391 255 -206.419C573.5 -246.447 853 -255.119 853 -255.119V210Z" fill="#3B2E2D"/>
<path d="M-1070 210H850V406H-1070V210Z" fill="#3B2E2D"/>
<path d="M69.2582 12.897C69.09 12.9011 68.9255 12.9472 68.7797 13.0312C68.6338 13.1151 68.5114 13.2343 68.4233 13.3776C68.1841 13.7379 68.0647 14.1644 68.0822 14.5965C68.0617 15.04 68.1882 15.4779 68.442 15.8422C68.5394 15.9882 68.6711 16.1081 68.8256 16.1915C68.98 16.2748 69.1525 16.3189 69.328 16.3201C69.4966 16.3161 69.6615 16.2699 69.8074 16.1854C69.9533 16.1009 70.0756 15.981 70.163 15.8368C70.4025 15.4776 70.5229 15.052 70.5067 14.6206C70.5262 14.1771 70.3999 13.7396 70.1469 13.3748C70.0493 13.2285 69.9171 13.1083 69.7622 13.0249C69.6072 12.9416 69.4341 12.8977 69.2582 12.897Z" fill="white"/>
<path d="M75.7558 12.924C75.6228 12.9268 75.4901 12.9374 75.3584 12.9561C75.3799 13.4474 75.3933 13.9602 75.3933 14.4945C75.3933 15.0798 75.3934 15.6626 75.4256 16.2371C75.5693 16.2691 75.716 16.2851 75.8632 16.2853C76.0692 16.3009 76.2757 16.2641 76.4635 16.1781C76.6513 16.0922 76.8143 15.96 76.9371 15.794C77.178 15.4422 77.3003 15.0227 77.2862 14.5966C77.2992 14.1686 77.1656 13.749 76.9076 13.4072C76.7682 13.2411 76.5913 13.1106 76.3914 13.0265C76.1916 12.9425 75.9747 12.9074 75.7585 12.924" fill="white"/>
<path d="M86.7794 12.8782C86.6096 12.8794 86.4405 12.8983 86.2747 12.9345C86.2988 13.3963 86.3123 13.9226 86.3123 14.5079C86.3686 14.5079 86.4331 14.5079 86.5083 14.5079C87.3137 14.5079 87.7353 14.2234 87.7353 13.6569C87.7353 13.1324 87.4166 12.8701 86.7794 12.8701" fill="white"/>
<path d="M82.4945 12.8674C82.4945 12.9641 82.2958 13.6478 81.8984 14.9186H83.1227C82.7397 13.6531 82.5482 12.9694 82.5482 12.8674H82.4945Z" fill="white"/>
<path d="M50.7243 12.8674C50.7243 12.9641 50.5255 13.6478 50.1282 14.9186H51.3525C50.9677 13.6531 50.7761 12.9694 50.7779 12.8674H50.7243Z" fill="white"/>
<path d="M64.4793 12.8834C64.2919 12.8806 64.1047 12.8977 63.9209 12.9343C63.9451 13.3156 63.9584 13.8096 63.9584 14.4218H64.2699C64.9858 14.4218 65.3439 14.1533 65.3439 13.6164C65.3439 13.1277 65.0566 12.8834 64.482 12.8834" fill="white"/>
<path d="M59.6733 12.924C59.5403 12.9268 59.4076 12.9374 59.2759 12.9561C59.2974 13.4474 59.3108 13.9602 59.3108 14.4945C59.3108 15.0798 59.3108 15.6626 59.343 16.2371C59.4867 16.2691 59.6334 16.2851 59.7806 16.2853C59.9866 16.3009 60.1931 16.2641 60.381 16.1781C60.5688 16.0922 60.7317 15.96 60.8546 15.794C61.0943 15.4416 61.2164 15.0226 61.2036 14.5966C61.2166 14.1686 61.083 13.749 60.825 13.4072C60.6857 13.2411 60.5088 13.1106 60.3089 13.0265C60.1091 12.9425 59.8921 12.9074 59.6759 12.924" fill="white"/>
<path d="M97.0546 12.897C96.8864 12.9011 96.7219 12.9472 96.576 13.0312C96.4302 13.1151 96.3077 13.2343 96.2196 13.3776C95.9805 13.7379 95.8611 14.1644 95.8786 14.5965C95.8595 15.0399 95.9858 15.4773 96.2384 15.8422C96.3358 15.9882 96.4675 16.1081 96.6219 16.1915C96.7764 16.2748 96.9489 16.3189 97.1244 16.3201C97.293 16.3161 97.4578 16.2699 97.6038 16.1854C97.7497 16.1009 97.872 15.981 97.9594 15.8368C98.1989 15.4776 98.3192 15.052 98.3031 14.6206C98.3226 14.1771 98.1962 13.7396 97.9433 13.3748C97.8457 13.2285 97.7135 13.1083 97.5585 13.0249C97.4036 12.9416 97.2306 12.8977 97.0546 12.897Z" fill="white"/>
<path d="M90.8123 12.8782C90.6426 12.8794 90.4735 12.8983 90.3076 12.9345C90.3318 13.3963 90.3451 13.9226 90.3451 14.5079C90.4006 14.5079 90.4651 14.5079 90.5385 14.5079C91.3565 14.5079 91.7663 14.2243 91.7681 13.6569C91.7681 13.1324 91.4496 12.8701 90.8123 12.8701" fill="white"/>
<path d="M82.0437 30.1232C81.5764 30.1238 81.115 30.2273 80.6922 30.4264C80.2695 30.6254 79.8958 30.9151 79.5977 31.2749C78.929 32.1526 78.5669 33.2256 78.5669 34.329C78.5669 35.4324 78.929 36.5054 79.5977 37.3831C79.895 37.7441 80.2684 38.0348 80.6913 38.2344C81.1142 38.434 81.5761 38.5376 82.0437 38.5376C82.5113 38.5376 82.9732 38.434 83.396 38.2344C83.8189 38.0348 84.1923 37.7441 84.4896 37.3831C85.1583 36.5054 85.5204 35.4324 85.5204 34.329C85.5204 33.2256 85.1583 32.1526 84.4896 31.2749C84.1912 30.9154 83.8175 30.6259 83.3948 30.4269C82.9721 30.2278 82.5109 30.1242 82.0437 30.1232Z" fill="white"/>
<path d="M70.4152 30.1232C69.9479 30.1238 69.4866 30.2273 69.0638 30.4264C68.6411 30.6254 68.2674 30.9151 67.9693 31.2749C67.3006 32.1526 66.9385 33.2256 66.9385 34.329C66.9385 35.4324 67.3006 36.5054 67.9693 37.3831C68.2665 37.7441 68.6399 38.0348 69.0628 38.2344C69.4857 38.434 69.9476 38.5376 70.4152 38.5376C70.8828 38.5376 71.3447 38.434 71.7676 38.2344C72.1905 38.0348 72.5639 37.7441 72.8611 37.3831C73.5298 36.5054 73.892 35.4324 73.892 34.329C73.892 33.2256 73.5298 32.1526 72.8611 31.2749C72.5628 30.9154 72.1891 30.6259 71.7664 30.4269C71.3437 30.2278 70.8824 30.1242 70.4152 30.1232Z" fill="white"/>
<path d="M125.6 25.234H122.252V31.1757H125.6C125.986 31.1888 126.37 31.112 126.72 30.9512C127.071 30.7904 127.38 30.5502 127.622 30.2495C128.112 29.6811 128.382 28.9554 128.382 28.2048C128.382 27.4543 128.112 26.7288 127.622 26.1604C127.38 25.8596 127.071 25.6193 126.72 25.4585C126.37 25.2977 125.986 25.2209 125.6 25.234Z" fill="white"/>
<path d="M137.728 35.0742C137.497 35.2748 137.312 35.5222 137.185 35.8C137.058 36.0778 136.991 36.3795 136.99 36.6851C136.982 36.949 137.04 37.2107 137.157 37.4471C137.275 37.6835 137.449 37.8875 137.664 38.041C138.109 38.3714 138.65 38.5467 139.205 38.5403C139.629 38.5336 140.047 38.4403 140.434 38.2663C140.821 38.0923 141.168 37.8412 141.455 37.5282C141.778 37.2208 142.034 36.8503 142.208 36.4398C142.382 36.0292 142.47 35.5872 142.467 35.1413C141.742 34.5825 140.836 34.312 139.924 34.3815C139.131 34.3216 138.345 34.5675 137.728 35.0688" fill="white"/>
<path d="M109.123 30.1233C108.407 30.1137 107.717 30.3866 107.201 30.883C106.63 31.4367 106.24 32.1498 106.081 32.929H112.256C112.195 32.2193 111.901 31.5499 111.419 31.0254C111.128 30.7132 110.772 30.47 110.375 30.3139C109.978 30.1578 109.551 30.0927 109.126 30.1233" fill="white"/>
<path d="M93.5859 30.1234C93.1264 30.124 92.6728 30.2278 92.2588 30.4272C91.8447 30.6265 91.4808 30.9162 91.1937 31.2751C90.5447 32.1611 90.1948 33.2309 90.1948 34.3292C90.1948 35.4274 90.5447 36.4972 91.1937 37.3832C91.4811 37.7426 91.8453 38.0328 92.2597 38.2328C92.6741 38.4327 93.128 38.5371 93.5881 38.5384C94.0482 38.5397 94.5027 38.4379 94.9182 38.2403C95.3337 38.0427 95.6996 37.7544 95.9889 37.3967C96.6314 36.5034 96.9769 35.4308 96.9769 34.3305C96.9769 33.2302 96.6314 32.1577 95.9889 31.2644C95.6985 30.904 95.3302 30.6142 94.9117 30.4165C94.4932 30.2189 94.0353 30.1187 93.5725 30.1234" fill="white"/>
<path d="M148.725 45.2924H146.661L149.139 39.4205L144.757 28.5118H146.929L150.103 36.8806H150.148L153.233 28.5118H155.405L148.725 45.2924ZM144.378 40.1589H142.464V38.548H142.378C142.038 39.1711 141.532 39.6876 140.915 40.0403C140.299 40.3929 139.597 40.5678 138.888 40.5455C137.838 40.5754 136.819 40.1895 136.053 39.4716C135.671 39.1094 135.372 38.6696 135.174 38.1819C134.977 37.6943 134.887 37.1699 134.909 36.6443C134.883 36.0767 134.991 35.5109 135.224 34.9927C135.457 34.4744 135.809 34.0184 136.251 33.6615C137.201 32.9262 138.378 32.5462 139.578 32.5875C140.589 32.5449 141.592 32.7927 142.467 33.3017V32.9688C142.484 32.5887 142.421 32.2093 142.282 31.855C142.144 31.5007 141.932 31.1794 141.661 30.9121C141.4 30.6585 141.09 30.4595 140.751 30.3267C140.412 30.194 140.049 30.1302 139.685 30.1389C139.127 30.1323 138.579 30.2901 138.109 30.5927C137.65 30.8766 137.307 31.3142 137.14 31.8276L135.314 30.9712C135.613 30.204 136.117 29.534 136.772 29.0354C137.592 28.4086 138.608 28.0928 139.64 28.1441C140.263 28.1243 140.885 28.2297 141.467 28.4543C142.05 28.6789 142.581 29.0181 143.031 29.4517C143.496 29.9398 143.856 30.519 144.087 31.153C144.318 31.7869 144.416 32.4618 144.373 33.1352L144.378 40.1589ZM133.727 40.1589H131.727V23.1421H133.727V40.1589ZM128.981 31.8358C128.538 32.296 128.006 32.6608 127.417 32.9082C126.829 33.1557 126.196 33.2804 125.557 33.2748H122.252V40.1669H120.252V23.1421H125.557C126.196 23.136 126.828 23.2602 127.417 23.5072C128.006 23.7542 128.538 24.1188 128.981 24.5786C129.908 25.5575 130.425 26.8546 130.425 28.2031C130.425 29.5516 129.908 30.8487 128.981 31.8276V31.8358ZM114.364 34.7408H105.952C105.952 35.7684 106.335 36.7592 107.026 37.5197C107.32 37.8425 107.677 38.1002 108.077 38.2763C108.476 38.4525 108.907 38.5433 109.343 38.5426C109.982 38.5826 110.616 38.4076 111.144 38.0456C111.672 37.6836 112.063 37.1554 112.256 36.545L114.036 37.3505C113.689 38.2528 113.094 39.0391 112.321 39.6193C111.473 40.2454 110.44 40.568 109.386 40.5348C108.642 40.5568 107.902 40.4097 107.223 40.1047C106.543 39.7996 105.942 39.3445 105.464 38.7735C104.429 37.5294 103.891 35.9468 103.952 34.33C103.915 32.7456 104.434 31.1983 105.418 29.9564C105.856 29.3765 106.425 28.9086 107.078 28.5908C107.731 28.273 108.45 28.1143 109.177 28.1279C109.896 28.1006 110.611 28.2384 111.268 28.5307C111.925 28.823 112.507 29.2619 112.968 29.814C113.971 31.0985 114.478 32.7021 114.394 34.33L114.364 34.7408ZM103.791 16.9964H102.959C102.706 16.4357 102.396 15.9024 102.035 15.4044C101.577 14.7635 101.206 14.0646 100.932 13.3261H100.878C100.931 13.8094 100.959 14.2951 100.961 14.7813C100.961 15.3881 100.977 16.1265 101.009 16.9964H100.188C100.22 16.2374 100.236 15.4025 100.236 14.4914C100.236 13.5804 100.22 12.8187 100.188 12.2065H101.187C101.397 12.7581 101.676 13.2813 102.016 13.7638C102.431 14.3745 102.772 15.0324 103.031 15.7237H103.082C103.028 15.1868 103.002 14.6874 103.002 14.2525C103.002 13.5884 102.986 12.9064 102.956 12.2065H103.796C103.764 12.8151 103.748 13.5768 103.748 14.4914C103.748 15.415 103.764 16.2473 103.796 16.9964H103.791ZM102.784 40.1589H100.784V23.1421H102.784V40.1589ZM98.6038 16.3869C98.4166 16.6208 98.1786 16.8092 97.9078 16.9375C97.6371 17.0659 97.3408 17.131 97.0412 17.128C96.758 17.1328 96.4774 17.0741 96.22 16.9561C95.9625 16.838 95.7349 16.6638 95.5537 16.4461C95.1436 15.9635 94.9299 15.3443 94.955 14.7115C94.9289 14.0286 95.1543 13.3599 95.5886 12.8322C95.7757 12.598 96.0137 12.4093 96.2844 12.2805C96.5551 12.1516 96.8515 12.0859 97.1512 12.0884C97.4343 12.0843 97.7147 12.1435 97.972 12.2614C98.2293 12.3794 98.4571 12.5533 98.6387 12.7704C99.0488 13.253 99.2625 13.8721 99.2374 14.5049C99.2633 15.1878 99.0379 15.8565 98.6038 16.3843V16.3869ZM98.8938 39.5629C98.9541 40.3917 98.8445 41.224 98.5716 42.0089C98.2988 42.7937 97.8684 43.5146 97.307 44.1272C96.8002 44.6339 96.1963 45.033 95.5314 45.3006C94.8666 45.5682 94.1546 45.6987 93.4381 45.6843C92.3174 45.7322 91.2187 45.364 90.3532 44.6506C89.5955 44.0146 89.0055 43.2025 88.6348 42.2853L90.4605 41.453C90.6631 42.0852 91.0538 42.6407 91.5802 43.0452C92.1063 43.4681 92.7631 43.695 93.4381 43.6869C93.9239 43.7125 94.4093 43.6293 94.8589 43.4436C95.3085 43.2578 95.711 42.9739 96.037 42.6129C96.7043 41.7853 97.0411 40.7397 96.9821 39.6783V38.5615H96.8935C96.5264 39.1513 96.0191 39.6409 95.4168 39.987C94.7667 40.3707 94.0238 40.5686 93.2689 40.5589C92.5784 40.5536 91.8981 40.3901 91.2805 40.0811C90.6629 39.772 90.1244 39.3257 89.7061 38.7761C88.7329 37.5075 88.2054 35.9532 88.2054 34.3542C88.2054 32.7552 88.7329 31.2008 89.7061 29.9321C90.1249 29.3834 90.6637 28.9377 91.2812 28.6292C91.8987 28.3206 92.5787 28.1576 93.2689 28.1521C94.0234 28.1427 94.766 28.3395 95.4168 28.7213C96.0185 29.0682 96.5256 29.5578 96.8935 30.147H96.9821V28.5361H98.8938V39.5629ZM86.5433 15.1761H86.3177C86.3177 15.6352 86.3177 16.2501 86.3553 16.9992H85.421C85.4497 16.2832 85.464 15.4481 85.464 14.494C85.464 13.6107 85.4506 12.851 85.421 12.2093H86.0063C86.0895 12.2093 86.248 12.2093 86.4842 12.2093C86.7205 12.2093 86.9219 12.2093 87.0964 12.2093C87.4787 12.1995 87.8545 12.3103 88.1703 12.5261C88.3179 12.637 88.4355 12.783 88.5124 12.9509C88.5893 13.1187 88.6231 13.303 88.6106 13.4872C88.6292 13.7364 88.584 13.9863 88.4792 14.2132C88.3745 14.4401 88.2136 14.6366 88.0119 14.7841C87.58 15.0734 87.0682 15.2199 86.5486 15.203L86.5433 15.1761ZM85.9875 38.7924C85.4945 39.3495 84.8888 39.7954 84.2105 40.1009C83.5322 40.4064 82.7967 40.5643 82.0528 40.5643C81.3089 40.5643 80.5735 40.4064 79.8952 40.1009C79.2169 39.7954 78.6112 39.3495 78.1181 38.7924C77.1198 37.5316 76.5766 35.9704 76.5766 34.3622C76.5766 32.7541 77.1198 31.1929 78.1181 29.9321C78.6116 29.3758 79.2175 28.9306 79.8957 28.6256C80.574 28.3206 81.3091 28.1628 82.0528 28.1628C82.7964 28.1628 83.5317 28.3206 84.2099 28.6256C84.8882 28.9306 85.494 29.3758 85.9875 29.9321C86.9845 31.1935 87.5268 32.7544 87.5268 34.3622C87.5268 35.9701 86.9845 37.531 85.9875 38.7924ZM74.3566 38.7924C73.8638 39.3494 73.2583 39.7953 72.5802 40.1007C71.9021 40.4062 71.167 40.5642 70.4233 40.5642C69.6796 40.5642 68.9443 40.4062 68.2662 40.1007C67.5881 39.7953 66.9827 39.3494 66.4899 38.7924C65.4916 37.5316 64.9484 35.9704 64.9484 34.3622C64.9484 32.7541 65.4916 31.1929 66.4899 29.9321C66.9832 29.3759 67.5888 28.9305 68.2668 28.6256C68.9448 28.3206 69.6798 28.163 70.4233 28.163C71.1667 28.163 71.9017 28.3206 72.5797 28.6256C73.2578 28.9305 73.8634 29.3759 74.3566 29.9321C75.3549 31.1929 75.8981 32.7541 75.8981 34.3622C75.8981 35.9704 75.3549 37.5316 74.3566 38.7924ZM63.9822 15.1117C63.9822 15.7426 63.9822 16.3789 64.0118 17.0206H63.0774C63.1043 16.2796 63.1204 15.4445 63.1204 14.5155C63.1204 13.5865 63.1043 12.8618 63.0774 12.2308H63.6573H64.0816C64.2937 12.2308 64.4923 12.2308 64.6749 12.2308C65.7032 12.2308 66.2187 12.6174 66.2187 13.3853C66.2305 13.6654 66.1507 13.9417 65.9913 14.1724C65.8318 14.403 65.6016 14.5754 65.3354 14.6633V14.7169C65.4683 14.7691 65.5895 14.8472 65.6919 14.9468C65.7942 15.0464 65.8756 15.1654 65.9314 15.2969C66.2024 15.8615 66.4329 16.4448 66.6214 17.0421H65.6253C65.487 16.4843 65.2862 15.9438 65.0266 15.4311C64.9496 15.3277 64.8477 15.2457 64.7303 15.1926C64.6128 15.1396 64.4838 15.1172 64.3554 15.1277H63.9822V15.1117ZM62.1861 38.0594C61.4828 38.8807 60.604 39.5336 59.6147 39.97C58.6253 40.4063 57.5506 40.6148 56.4699 40.5804C55.3873 40.5931 54.3149 40.3714 53.3263 39.9301C52.3377 39.4889 51.4564 38.8388 50.743 38.0245C49.2224 36.2647 48.3856 34.0166 48.3856 31.6908C48.3856 29.3651 49.2224 27.1169 50.743 25.3571C51.4564 24.5428 52.3377 23.8927 53.3263 23.4515C54.3149 23.0102 55.3873 22.7883 56.4699 22.8011C57.5748 22.7979 58.6664 23.0421 59.6649 23.5154C60.6187 23.9422 61.4545 24.5944 62.1001 25.4161L60.7308 26.9144C60.2376 26.2574 59.592 25.73 58.8498 25.3778C58.1075 25.0256 57.2908 24.8592 56.4699 24.8927C55.6688 24.8875 54.8758 25.0523 54.1431 25.3763C53.4105 25.7003 52.7549 26.1759 52.2198 26.772C51.0614 28.1451 50.4261 29.8836 50.4261 31.68C50.4261 33.4764 51.0614 35.2149 52.2198 36.588C52.7659 37.184 53.4301 37.6597 54.1702 37.9846C54.9104 38.3096 55.7102 38.4769 56.5185 38.4756C57.3269 38.4743 58.1261 38.3046 58.8652 37.9773C59.6043 37.65 60.2671 37.1722 60.8113 36.5745C61.6224 35.6064 62.0823 34.3925 62.1162 33.1299H56.4645V31.084H64.0063C64.0768 31.5091 64.1127 31.9392 64.1138 32.3701C64.2209 34.4407 63.5289 36.4734 62.1806 38.0486L62.1861 38.0594ZM42.0602 32.9071C41.7586 33.1382 41.4419 33.349 41.1123 33.538C39.1953 34.6978 37.273 35.8443 35.3587 37.0122C35.314 37.0531 35.2608 37.0834 35.203 37.1012C35.1452 37.119 35.0841 37.1237 35.0242 37.115C34.9643 37.1062 34.9072 37.0843 34.8568 37.0507C34.8065 37.0172 34.7642 36.9729 34.7331 36.921C33.3728 35.3834 31.9999 33.8556 30.6145 32.3378C30.4131 32.1176 30.4078 31.9969 30.6145 31.774C32.2254 30.0396 33.8274 28.2962 35.4204 26.5439C35.4476 26.4974 35.4848 26.4575 35.5294 26.4272C35.5739 26.3969 35.6246 26.377 35.6778 26.3687C35.7311 26.3605 35.7855 26.3643 35.8371 26.3797C35.8887 26.3951 35.9362 26.4218 35.9762 26.4579C37.8717 27.6338 39.7753 28.7912 41.6735 29.9483C41.9767 30.0945 42.2357 30.3183 42.4244 30.597C42.613 30.8757 42.7244 31.1994 42.7474 31.5351C42.7441 31.7999 42.6808 32.0603 42.5622 32.297C42.4436 32.5337 42.2728 32.7405 42.0628 32.9017L42.0602 32.9071ZM33.7907 37.9089C27.4454 41.7072 21.1046 45.5107 14.7683 49.3197C14.6663 49.3841 14.5669 49.4861 14.4998 49.5237C19.4436 44.0627 24.382 38.5981 29.315 33.1299C29.6211 32.7889 29.7633 32.8345 30.0399 33.1486C31.2928 34.5805 32.5592 35.9911 33.839 37.3801C34.0619 37.6271 34.0806 37.7263 33.7772 37.917L33.7907 37.9089ZM11.8498 49.7305C11.5834 49.4986 11.3738 49.2084 11.2374 48.8825C11.101 48.5566 11.0414 48.2037 11.0631 47.8511C11.0631 44.6292 11.0631 41.4074 11.0631 38.1856C11.0631 35.9124 11.0631 33.6364 11.0631 31.3578C11.0631 25.9236 11.0631 20.4885 11.0631 15.0525C11.0157 14.4132 11.2071 13.779 11.6002 13.2725C11.7693 13.0765 11.8901 13.0228 12.0941 13.2537C15.4395 16.9857 18.7894 20.7123 22.1437 24.4336C24.3167 26.8446 26.4905 29.2529 28.6652 31.6585C28.8747 31.8921 28.8935 32.0157 28.6652 32.2573C23.3331 38.0531 18.0098 43.8587 12.6956 49.6741C12.6525 49.7482 12.5918 49.8104 12.5189 49.8554C12.446 49.9004 12.3631 49.9268 12.2776 49.9321C12.1921 49.9374 12.1067 49.9215 12.0288 49.8859C11.9509 49.8503 11.883 49.796 11.831 49.7279L11.8498 49.7305ZM13.9279 12.945C20.7296 17.1173 27.5385 21.2859 34.3545 25.451C34.6659 25.6443 34.6606 25.7519 34.419 26.0123C32.8975 27.6501 31.3832 29.2967 29.8761 30.9524C29.7123 31.1323 29.6076 31.221 29.3955 30.9901C23.981 24.9509 18.5602 18.916 13.1332 12.8858C13.0875 12.8348 13.0499 12.7759 12.9587 12.6497C13.304 12.6491 13.6415 12.7519 13.9279 12.945ZM49.3952 14.6391C49.7101 13.8456 49.972 13.0321 50.1792 12.2039H51.4518C51.6421 13.0172 51.8797 13.8186 52.1634 14.6042C52.4434 15.3873 52.6809 16.185 52.8748 16.9938H51.8009C51.7375 16.5278 51.6351 16.0679 51.4948 15.619H49.9805C49.8335 16.0667 49.7275 16.5269 49.6638 16.9938H48.6381C48.6381 16.8971 48.9003 16.1122 49.4247 14.6391H49.3952ZM53.632 12.2039H54.6307C54.8414 12.7555 55.1201 13.2787 55.4604 13.7612C55.8747 14.3727 56.2162 15.0304 56.478 15.7211H56.5289C56.4762 15.2324 56.4485 14.7412 56.4458 14.2497C56.4458 13.5865 56.4323 12.9074 56.4001 12.2039H57.2405C57.2083 12.8134 57.1948 13.5759 57.1948 14.4888C57.1948 15.4017 57.1948 16.2447 57.2405 16.9938H56.4242C56.1694 16.4334 55.8591 15.9 55.4979 15.4016C55.042 14.7594 54.6711 14.0609 54.3945 13.3235H54.3408C54.3945 13.8068 54.4232 14.2925 54.4267 14.7787C54.4267 15.3855 54.4401 16.1212 54.4723 16.9938H53.6454C53.6812 16.2348 53.6982 15.3999 53.6964 14.4888C53.6946 13.5777 53.6777 12.8161 53.6454 12.2039H53.632ZM58.4299 12.2039H59.0178C59.1145 12.2039 59.2568 12.2039 59.4474 12.2039H59.8206C60.1453 12.1735 60.4726 12.2173 60.7777 12.3322C61.0829 12.4471 61.358 12.6301 61.5819 12.8671C61.945 13.3158 62.1355 13.8796 62.1189 14.4565C62.1307 15.1165 61.9145 15.7605 61.5067 16.2796C61.3036 16.5369 61.042 16.7418 60.7435 16.8772C60.445 17.0127 60.1184 17.0747 59.7911 17.0582C59.4581 17.0582 59.0017 17.0448 58.4191 17.0152C58.4478 16.2742 58.4621 15.4392 58.4621 14.5103C58.4621 13.6153 58.4478 12.8537 58.4191 12.2254L58.4299 12.2039ZM67.7867 12.8589C67.9738 12.6247 68.2117 12.4362 68.4824 12.3073C68.7531 12.1785 69.0495 12.1128 69.3493 12.1153C69.6324 12.1112 69.9127 12.1703 70.17 12.2883C70.4273 12.4063 70.6551 12.5802 70.8367 12.7973C71.2457 13.2805 71.4592 13.8991 71.4354 14.5317C71.4613 15.2146 71.2359 15.8834 70.8018 16.4112C70.6146 16.6451 70.3766 16.8333 70.1058 16.9616C69.8351 17.09 69.5388 17.1551 69.2392 17.1521C68.956 17.1569 68.6754 17.0982 68.418 16.9802C68.1605 16.8621 67.9329 16.6879 67.7518 16.4702C67.3417 15.9876 67.1279 15.3685 67.153 14.7358C67.1256 14.0526 67.3513 13.3834 67.7867 12.8563V12.8589ZM72.3859 12.2226H73.3363C73.3068 12.8428 73.2934 13.6027 73.2934 14.5075C73.2934 15.4123 73.3068 16.2662 73.3363 17.0126H72.3859C72.4127 16.2528 72.4288 15.4177 72.4288 14.5075C72.4288 13.5973 72.4127 12.8509 72.3859 12.2226ZM74.5123 12.2226H75.1003C75.197 12.2226 75.3392 12.2226 75.5299 12.2226H75.9031C76.2277 12.1922 76.5551 12.2362 76.8602 12.3511C77.1654 12.466 77.4404 12.6488 77.6644 12.8858C78.0275 13.3345 78.218 13.8984 78.2014 14.4754C78.213 15.1354 77.9968 15.7791 77.5892 16.2983C77.3861 16.5555 77.1244 16.7605 76.8259 16.8959C76.5275 17.0314 76.2009 17.0935 75.8736 17.077C75.5406 17.077 75.0842 17.0636 74.5015 17.0341C74.532 16.293 74.5464 15.4579 74.5446 14.5289C74.5446 13.634 74.5302 12.8725 74.5015 12.2442L74.5123 12.2226ZM81.1896 14.6794C81.5044 13.8859 81.7664 13.0724 81.9736 12.2442H83.2463C83.4365 13.0575 83.674 13.8589 83.9577 14.6445C84.2377 15.4276 84.4752 16.2253 84.6693 17.0341H83.5953C83.532 16.5681 83.4296 16.1082 83.2892 15.6593H81.7346C81.5862 16.1066 81.4801 16.5669 81.4179 17.0341H80.4056C80.4056 16.9374 80.6678 16.1525 81.1923 14.6794H81.1896ZM89.4322 12.2442H90.0176C90.1008 12.2442 90.2591 12.2442 90.4954 12.2442C90.7317 12.2442 90.9357 12.2442 91.1076 12.2442C91.4901 12.2335 91.8662 12.3443 92.1816 12.561C92.3296 12.6716 92.4474 12.8175 92.5243 12.9854C92.6012 13.1534 92.6348 13.3379 92.6219 13.5221C92.6402 13.771 92.5951 14.0206 92.4909 14.2474C92.3867 14.4742 92.2267 14.6708 92.0258 14.819C91.5931 15.1087 91.0803 15.2552 90.5599 15.2379H90.3343C90.3343 15.697 90.3478 16.3117 90.3719 17.0608H89.4483C89.4788 16.3448 89.494 15.5099 89.494 14.5558C89.494 13.6725 89.4779 12.9126 89.4483 12.271L89.4322 12.2442ZM153.08 0.771704H7.08686C5.12285 0.862968 3.27499 1.72869 1.94799 3.17948C0.620999 4.63027 -0.0770439 6.54786 0.00676089 8.51221V50.2595C-0.0770439 52.2239 0.620999 54.1413 1.94799 55.5921C3.27499 57.0429 5.12285 57.9087 7.08686 58H153.08C155.044 57.9081 156.891 57.042 158.217 55.5913C159.544 54.1405 160.241 52.2234 160.157 50.2595V8.45584C160.241 6.49194 159.544 4.5748 158.217 3.12409C156.891 1.67338 155.044 0.807284 153.08 0.715332" fill="white"/>
</g>
<defs>
<clipPath id="clip0_0:1">
<rect width="1920" height="3455" fill="white" transform="translate(-1070 -3049)"/>
</clipPath>
</defs>
</svg>
