<svg width="209" height="82" viewBox="0 0 209 82" fill="none" xmlns="http://www.w3.org/2000/svg">
<path d="M79.8131 63.0555C79.087 63.2777 78.2493 63.5 77.2439 63.7778C76.2944 64 75.2332 64.2222 74.172 64.4444C73.055 64.6666 71.9938 64.8333 70.8767 64.9444C69.7597 65.0555 68.6426 65.1111 67.5814 65.1111C65.5707 65.1111 63.6718 64.9444 61.8845 64.6666C60.0972 64.3333 58.5892 63.7222 57.4163 62.7777C56.2434 61.8333 55.4056 60.4444 54.9588 58.6111C54.5119 56.7778 54.6237 54.3333 55.2939 51.2778L58.9243 34.1111C59.8179 33.8889 60.7116 33.7778 61.6052 33.7222C62.443 33.6666 63.2808 33.6111 64.0627 33.6111C64.7888 33.6111 65.6266 33.6666 66.4644 33.7222C67.3022 33.7778 68.14 33.9444 68.9219 34.1111L65.459 50.4444C64.9564 52.7778 65.0122 54.3889 65.6266 55.2778C66.241 56.1111 67.358 56.5555 68.9777 56.5555C69.648 56.5555 70.1506 56.5555 70.5416 56.5C70.8767 56.4444 71.156 56.4444 71.3235 56.3889L76.071 34.1111C76.9646 33.8889 77.8583 33.7778 78.7519 33.7222C79.5897 33.6666 80.4275 33.6111 81.2094 33.6111C81.9355 33.6111 82.7733 33.6666 83.6111 33.7222C84.4489 33.7778 85.2867 33.9444 86.0686 34.1111L79.8131 63.0555Z" fill="white"/>
<path d="M88.0236 49.3335C88.5262 47.0001 89.3082 44.8335 90.3694 42.889C91.4306 40.9446 92.771 39.2779 94.3908 37.889C96.0105 36.5001 97.7978 35.389 99.8643 34.6112C101.931 33.8335 104.165 33.4446 106.622 33.4446C107.46 33.4446 108.242 33.4446 108.968 33.5001C109.694 33.5557 110.42 33.6112 111.146 33.7224C111.873 33.8335 112.543 34.0001 113.269 34.2779C113.995 34.5001 114.777 34.7779 115.671 35.1668C115.447 36.5001 115.056 37.8335 114.498 39.1112C113.883 40.4446 113.157 41.7224 112.208 42.9446C111.593 42.7224 111.035 42.5001 110.532 42.389C110.029 42.2779 109.527 42.1668 109.08 42.0557C108.633 42.0001 108.186 41.9446 107.739 41.889C107.293 41.889 106.79 41.8335 106.287 41.8335C104.388 41.8335 102.713 42.389 101.261 43.5001C99.8084 44.6112 98.7473 46.5557 98.1887 49.2779C97.8536 50.7224 97.7978 51.9446 97.9653 52.889C98.1329 53.8335 98.468 54.6112 98.9707 55.1668C99.4733 55.7224 100.088 56.1112 100.87 56.3335C101.652 56.5557 102.434 56.6668 103.383 56.6668C104.5 56.6668 105.561 56.5557 106.399 56.389C107.293 56.2224 108.354 55.889 109.583 55.4446C110.029 56.5001 110.309 57.6668 110.42 59.0001C110.532 60.3335 110.42 61.8335 110.085 63.5001C108.13 64.2224 106.399 64.6668 104.835 64.8335C103.271 65.0557 101.763 65.1112 100.311 65.1112C97.7978 65.1112 95.6754 64.7224 93.8881 64.0001C92.1008 63.2779 90.7045 62.1668 89.6992 60.7779C88.6938 59.389 88.0236 57.7224 87.8002 55.7779C87.4092 53.9446 87.5209 51.7779 88.0236 49.3335Z" fill="white"/>
<path d="M190.625 23.1111C189.787 23.0556 188.949 23 188.167 23C187.385 23 186.547 23.0556 185.654 23.1111C184.76 23.1667 183.866 23.3333 182.973 23.5556L174.26 64.7222C175.265 64.9444 176.159 65.0555 176.997 65.1111C177.834 65.1667 178.56 65.2222 179.231 65.2222C179.845 65.2222 180.627 65.1667 181.465 65.1111C182.303 65.0555 183.308 64.9444 184.369 64.7222L193.082 23.5556C192.356 23.3333 191.518 23.1667 190.625 23.1111Z" fill="white"/>
<path d="M209 34.0001C208.386 33.8334 207.548 33.7223 206.543 33.6668C205.481 33.6112 204.476 33.5557 203.415 33.5557C202.633 33.5557 201.683 33.6112 200.622 33.6668C199.561 33.7223 198.667 33.889 197.941 34.0001L187.776 48.7223L192.356 64.6668C192.915 64.8334 193.696 64.9446 194.702 65.0001C195.707 65.0557 196.713 65.1112 197.774 65.1112C198.556 65.1112 199.505 65.0557 200.622 65.0001C201.739 64.9446 202.633 64.7779 203.415 64.6668L198.556 48.3334L209 34.0001Z" fill="white"/>
<path d="M129.466 56.4444H139.631C139.575 58.0555 139.408 59.4444 139.184 60.5555C139.073 61.1666 138.905 61.7222 138.738 62.3333C138.57 62.9444 138.291 63.6666 137.956 64.5H113.157L128.349 42.1666H119.189C119.189 41.3333 119.189 40.5555 119.301 39.8889C119.357 39.2222 119.468 38.6111 119.58 38.0555C119.692 37.4444 119.859 36.8889 120.027 36.2778C120.195 35.6666 120.474 34.9444 120.865 34.1111H144.825L129.466 56.4444Z" fill="white"/>
<path d="M164.653 45.7778H155.214C155.717 44.1111 156.499 42.8889 157.56 42.1111C158.621 41.3333 159.794 40.9444 161.079 40.9444C162.531 40.9444 163.536 41.3889 164.15 42.3333C164.653 43.2222 164.821 44.3889 164.653 45.7778ZM173.589 41.8889C173.366 40.1667 172.808 38.6667 171.914 37.4444C171.02 36.2222 169.847 35.2222 168.339 34.5556C166.831 33.8333 165.044 33.5 162.977 33.5C160.464 33.5 158.174 33.9444 156.108 34.7778C154.041 35.6111 152.198 36.7778 150.634 38.2222C149.07 39.6667 147.73 41.3889 146.724 43.3333C145.663 45.2778 144.937 47.3889 144.434 49.6111C143.932 51.8889 143.82 54 143.988 55.8889C144.211 57.8333 144.77 59.4445 145.775 60.8333C146.78 62.2222 148.177 63.3333 150.02 64.1111C151.863 64.8889 154.209 65.2778 157.057 65.2778C160.743 65.2778 163.983 64.8333 167.669 63.3889C167.669 63.3889 168.842 61.7222 169.345 59.3333C169.736 57.5 169.624 56.1111 169.512 55.5556C169.512 55.4445 169.456 55.2778 169.456 55.2778C167.948 55.8333 164.821 56.2778 163.313 56.5556C161.86 56.8333 160.52 56.9445 159.403 56.9445C157.616 56.9445 156.275 56.6111 155.326 55.9444C154.376 55.2778 153.874 54.1667 153.762 52.5556H171.746C171.914 52 172.193 51.3333 172.472 50.4445C172.752 49.6111 172.975 48.6667 173.254 47.6111C173.701 45.5556 173.813 43.6667 173.589 41.8889Z" fill="white"/>
<path d="M39.9345 25.3889C39.4877 27.5 38.5382 29 37.1978 29.8889C35.8014 30.7778 34.07 31.1667 31.8918 31.1667H29.8252L32.171 20.1667C32.5061 20.1111 32.8413 20.1111 33.2881 20.1111H34.3493C35.0754 20.1111 35.8573 20.1667 36.6392 20.3333C37.4212 20.5 38.0914 20.7778 38.6499 21.1667C39.2084 21.5556 39.6553 22.1111 39.9345 22.7778C40.1579 23.4444 40.1579 24.3333 39.9345 25.3889ZM37.7563 48.0555C37.477 49.2778 37.0302 50.3333 36.4158 51.1667C35.7456 52 35.0195 52.6111 34.07 53.1111C33.1764 53.6111 32.2269 53.9444 31.2215 54.1111C30.2162 54.3333 29.2108 54.3889 28.2614 54.3889C27.4236 54.3889 26.7533 54.3889 26.1948 54.3333C25.6921 54.3333 25.2453 54.2778 24.9102 54.2222L27.5911 41.7222H30.663C33.1764 41.7222 35.0754 42.1667 36.4717 43.1111C37.8121 44.0555 38.2589 45.7222 37.7563 48.0555ZM23.2905 47.3333C22.1176 47.8333 19.9952 48.9444 17.5377 51C15.918 48.8333 14.1865 47.7778 13.2929 47.2778L15.1919 38.4444C16.1414 39.0555 17.5935 40.1667 18.934 42.0555L19.325 42.6667L19.9952 42.0555C22.0617 40.1667 23.9607 39.0555 25.1895 38.5L23.2905 47.3333ZM21.1122 57.5C20.4979 60.2222 17.8169 62.4444 15.0243 62.4444C12.2317 62.4444 10.5003 60.2222 11.1146 57.5L12.9578 48.8889C13.9073 49.5 15.3594 50.6111 16.6999 52.5L17.0909 53.1111L17.7611 52.5C19.8276 50.6111 21.7266 49.5 22.9554 48.9444L21.1122 57.5ZM17.426 27.9444C18.3755 28.5555 19.8276 29.6667 21.1681 31.5555L21.5591 32.1667L22.2293 31.5555C24.2958 29.6667 26.1948 28.5556 27.4236 28L25.5246 36.8333C24.3517 37.3333 22.2293 38.4444 19.7718 40.5C18.1521 38.3333 16.4206 37.2778 15.527 36.7778L17.426 27.9444ZM19.6601 17.5C20.6096 18.1111 22.0617 19.2222 23.4022 21.1111L23.7932 21.7222L24.4634 21.1111C26.5299 19.2222 28.4289 18.1111 29.6577 17.5556L27.7587 26.3889C26.5858 26.8889 24.4634 28 22.0059 30.0555C20.3862 27.8889 18.6547 26.8333 17.7611 26.3333L19.6601 17.5ZM49.8763 30.7778C51.3284 28.8889 52.2779 26.7222 52.7806 24.3889C53.395 21.5556 53.3391 19.2222 52.6689 17.3333C51.9987 15.4444 50.8258 14 49.2619 12.8889C47.6422 11.7778 45.6873 11 43.2857 10.5C40.9399 10.0556 38.3148 9.77778 35.4663 9.77778C34.5168 9.77778 33.6232 9.77778 32.7296 9.83333L34.852 0H33.3998L31.2774 9.88889L29.9928 15.9444C29.3784 16.2222 28.4289 16.6667 27.3119 17.3889L28.8757 10L30.9981 0H29.6018L27.4236 10.1111L25.6363 18.5C25.1895 18.8333 24.7427 19.1667 24.2958 19.6111C23.9607 19.1667 23.6256 18.7778 23.2905 18.4444L25.0219 10.3889L27.256 0.0555555H25.8038L23.5697 10.6111L22.1176 17.3333C21.2798 16.6111 20.5537 16.2222 20.051 15.9444L21.1122 11L23.4022 0H21.95L19.5484 11.1667C11.6173 12.6111 4.91502 15 0 17.1111C1.22875 22.5556 5.02672 26.3333 5.02672 26.3333V26.2778C8.76884 24.7222 12.2317 23.6111 15.3594 22.7222L6.92571 63.5555L9.88589 64C9.94174 64 9.99759 64 10.0534 64C12.3993 64.2778 14.6334 64.5555 16.6999 64.7222C18.8223 64.9444 21.2239 65 23.9049 65C27.3119 65 30.4955 64.7778 33.5115 64.2778C36.5275 63.7778 39.2084 62.8889 41.5542 61.6667C43.9001 60.4444 45.9107 58.7222 47.5863 56.6111C49.2619 54.5 50.4348 51.7778 51.105 48.5C51.496 46.5555 51.6077 44.8333 51.4401 43.3889C51.2726 41.8889 50.8816 40.6111 50.2672 39.5555C49.6529 38.5 48.9268 37.6111 47.9773 36.8889C47.0278 36.1667 46.0783 35.6111 45.0171 35.1667C46.8044 34.1667 48.4241 32.6667 49.8763 30.7778Z" fill="white"/>
<path d="M81.2654 79.7222C81.768 79.7222 82.159 79.5556 82.4383 79.1667C82.7175 78.7778 82.9409 78.2778 83.1085 77.5556C83.2761 76.8334 83.2761 76.3334 83.1085 75.9445C82.9409 75.5556 82.6617 75.3889 82.159 75.3889C81.6563 75.3889 81.2654 75.5556 80.9861 75.9445C80.7068 76.3334 80.4834 76.8334 80.3159 77.5556C80.1483 78.2223 80.1483 78.7778 80.3159 79.1667C80.4276 79.5 80.7627 79.7222 81.2654 79.7222ZM80.9302 81.1667C80.3717 81.1667 79.869 81.0556 79.5339 80.8889C79.143 80.7222 78.8637 80.4445 78.6403 80.1111C78.4169 79.7778 78.3052 79.3889 78.2493 78.9445C78.1935 78.5 78.2493 78.0556 78.361 77.5556C78.4727 77.0556 78.6403 76.5556 78.8637 76.1111C79.0871 75.6667 79.3664 75.2778 79.7015 74.9445C80.0366 74.6111 80.4276 74.3889 80.8744 74.1667C81.3212 74 81.8239 73.8889 82.3824 73.8889C82.9409 73.8889 83.4436 74 83.7787 74.1667C84.1697 74.3334 84.449 74.6111 84.6724 74.9445C84.8958 75.2778 85.0075 75.6667 85.0633 76.1111C85.1192 76.5556 85.0633 77.0556 84.9516 77.5556C84.8399 78.0556 84.6724 78.5556 84.449 78.9445C84.2255 79.3889 83.9463 79.7778 83.6112 80.1111C83.276 80.4445 82.8851 80.6667 82.3824 80.8889C82.0473 81.0556 81.4888 81.1667 80.9302 81.1667Z" fill="white"/>
<path d="M91.1513 75.4998C90.9837 75.4443 90.8162 75.4443 90.7603 75.3887C90.6486 75.3887 90.5369 75.3887 90.3693 75.3887C90.0901 75.3887 89.8108 75.4443 89.5315 75.5554C89.3081 75.6665 89.0847 75.8332 88.8613 76.0554C88.6938 76.2776 88.5262 76.4998 88.4145 76.7776C88.3028 77.0554 88.1911 77.3332 88.1352 77.6109C88.0794 77.9998 88.0235 78.2776 88.0794 78.5554C88.1352 78.8332 88.1911 78.9998 88.3028 79.1665C88.4145 79.3332 88.5821 79.4443 88.8055 79.4998C89.0289 79.5554 89.2523 79.6109 89.4757 79.6109C89.6433 79.6109 89.755 79.6109 89.9225 79.6109C90.0342 79.6109 90.2018 79.5554 90.3693 79.4998L91.1513 75.4998ZM92.1008 71.2221C92.2683 71.2221 92.4359 71.1665 92.6034 71.1665C92.771 71.1665 92.9385 71.1665 93.0503 71.1665C93.162 71.1665 93.3854 71.1665 93.4971 71.1665C93.6646 71.1665 93.8322 71.1665 93.9439 71.2221L91.9332 80.7776C91.4864 80.8887 91.0396 80.9998 90.5927 81.0554C90.1459 81.1109 89.5874 81.1665 88.973 81.1665C88.4704 81.1665 88.0794 81.1109 87.6326 80.9998C87.2416 80.8887 86.9065 80.6665 86.6272 80.3887C86.348 80.1109 86.1804 79.7221 86.0687 79.2776C85.957 78.8332 86.0128 78.2776 86.1246 77.6665C86.2363 77.1665 86.4038 76.6665 86.6831 76.2221C86.9623 75.7776 87.2416 75.3887 87.6326 75.0554C88.0235 74.7221 88.4145 74.4443 88.9172 74.2776C89.4198 74.1109 89.9225 73.9998 90.4252 73.9998C90.5927 73.9998 90.7603 73.9998 90.9279 73.9998C91.0954 73.9998 91.263 74.0554 91.4305 74.1109L92.1008 71.2221Z" fill="white"/>
<path d="M101.037 79.3888L102.043 74.7221L100.255 75.3888C100.144 75.1666 100.032 74.9444 99.976 74.7221C99.9202 74.4999 99.8643 74.2221 99.8643 73.9999L104.053 72.3333H104.388L102.88 79.4444H104.779C104.779 79.611 104.779 79.7221 104.723 79.8332C104.723 79.9444 104.668 80.0555 104.668 80.2221C104.612 80.3888 104.612 80.4999 104.556 80.611C104.5 80.7221 104.5 80.8888 104.388 80.9999H98.6914C98.6914 80.8332 98.6914 80.7221 98.7473 80.611C98.7473 80.4999 98.8031 80.3332 98.8031 80.2221C98.8031 80.111 98.859 79.9999 98.9148 79.8332C98.9707 79.7221 98.9707 79.5555 99.0824 79.4444H101.037V79.3888Z" fill="white"/>
<path d="M109.415 77.0001C109.862 77.0001 110.253 76.8889 110.588 76.6112C110.923 76.3334 111.146 75.9445 111.258 75.4445C111.37 74.8889 111.314 74.4445 111.146 74.1667C110.979 73.8889 110.644 73.7223 110.197 73.7223C109.806 73.7223 109.415 73.8334 109.08 74.1112C108.745 74.3889 108.521 74.7778 108.41 75.3889C108.298 76 108.354 76.3889 108.521 76.6667C108.689 76.8889 108.968 77.0001 109.415 77.0001ZM106.455 82C106.455 81.8334 106.455 81.7223 106.455 81.5556C106.455 81.3889 106.455 81.2778 106.511 81.1112C106.566 80.8889 106.622 80.6667 106.79 80.3889C107.293 80.3889 107.739 80.2778 108.186 80.1112C108.633 79.9445 108.968 79.7223 109.303 79.5C109.638 79.2223 109.918 78.9445 110.141 78.6112C110.364 78.2778 110.588 77.8889 110.755 77.5556C110.644 77.6667 110.532 77.7778 110.42 77.8889C110.309 78 110.141 78.1112 109.973 78.2223C109.806 78.3334 109.583 78.3889 109.359 78.4445C109.136 78.5 108.912 78.5556 108.633 78.5556C108.242 78.5556 107.907 78.5 107.572 78.3889C107.237 78.2778 106.957 78.0556 106.79 77.8334C106.566 77.5556 106.455 77.2778 106.343 76.8889C106.287 76.5 106.287 76.0556 106.399 75.5C106.511 74.9445 106.734 74.5 107.013 74.1112C107.293 73.7223 107.628 73.3889 107.963 73.1112C108.354 72.8334 108.745 72.6112 109.192 72.5001C109.638 72.3889 110.085 72.2778 110.476 72.2778C111.593 72.2778 112.375 72.6112 112.822 73.2778C113.269 73.9445 113.38 74.8889 113.101 76.2223C112.934 77.0556 112.654 77.7778 112.319 78.5C111.928 79.2223 111.481 79.8334 110.923 80.3334C110.364 80.8889 109.75 81.2778 108.968 81.6111C108.186 81.7778 107.404 81.9445 106.455 82Z" fill="white"/>
<path d="M113.101 79.7222L118.519 72.1111C118.798 72.1666 119.078 72.2222 119.357 72.2778C119.636 72.3889 119.859 72.5 120.083 72.7222L116.117 78.2777H118.016L118.463 76.1666C118.631 76.1666 118.742 76.1111 118.91 76.1111C119.078 76.1111 119.189 76.1111 119.357 76.1111C119.524 76.1111 119.692 76.1111 119.859 76.1111C120.027 76.1111 120.195 76.1666 120.306 76.1666L119.859 78.2777H120.809C120.809 78.5555 120.753 78.7778 120.697 79.0555C120.641 79.1666 120.641 79.3333 120.586 79.4444C120.53 79.6111 120.474 79.7222 120.418 79.8333H119.524L119.133 81.7222C118.966 81.7222 118.798 81.7777 118.687 81.7777C118.519 81.7777 118.407 81.7777 118.24 81.7777C118.072 81.7777 117.905 81.7777 117.737 81.7777C117.57 81.7777 117.402 81.7222 117.29 81.7222L117.681 79.8333H113.157L113.101 79.7222Z" fill="white"/>
<path d="M124.16 72.2778H128.963C128.963 72.5556 128.908 72.8334 128.852 73.0556C128.796 73.3334 128.684 73.6112 128.572 73.8889H125.501L124.998 75.7778C125.165 75.7223 125.333 75.7223 125.445 75.7223C125.556 75.7223 125.724 75.7223 125.836 75.7223C126.282 75.7223 126.673 75.7778 127.009 75.8889C127.344 76.0001 127.623 76.1667 127.791 76.4445C128.014 76.6667 128.126 76.9445 128.181 77.3334C128.237 77.6667 128.237 78.0556 128.126 78.5556C128.014 79.1112 127.791 79.6112 127.511 80.0001C127.232 80.4445 126.897 80.7778 126.45 81.0556C126.059 81.3334 125.556 81.5556 124.998 81.7223C124.439 81.8889 123.881 81.9445 123.266 81.9445C123.155 81.9445 122.987 81.9445 122.82 81.9445C122.652 81.9445 122.485 81.8889 122.261 81.8889C122.094 81.8334 121.87 81.8334 121.647 81.7778C121.423 81.7223 121.256 81.6667 121.032 81.6112C121.144 81.3334 121.256 81.0556 121.367 80.7778C121.535 80.5 121.647 80.2223 121.814 80.0001C122.094 80.1112 122.373 80.1667 122.652 80.2778C122.931 80.3334 123.211 80.3889 123.49 80.3889C123.881 80.3889 124.216 80.3334 124.551 80.2778C124.83 80.1667 125.11 80.0556 125.277 79.9445C125.501 79.7778 125.612 79.6112 125.724 79.4445C125.836 79.2778 125.892 79.0556 125.947 78.8334C126.059 78.3889 125.947 78.0556 125.724 77.7778C125.501 77.5556 125.054 77.3889 124.383 77.3889C124.104 77.3889 123.881 77.3889 123.602 77.4445C123.322 77.5 123.099 77.5556 122.82 77.7223L122.652 77.5556L124.16 72.2778Z" fill="white"/>
<path d="M7.31672 77.7222C7.31672 77.6111 7.37257 77.5556 7.42842 77.4445C7.48427 77.3889 7.54013 77.2778 7.59598 77.1667C7.65183 77.0556 7.76354 77 7.87524 76.8889H69.4805C69.4805 77 69.4805 77.1111 69.4247 77.1667C69.3688 77.2778 69.3688 77.3334 69.313 77.3889C69.2571 77.4445 69.2013 77.5556 69.1454 77.6111C69.0896 77.7223 68.9779 77.7778 68.8662 77.8889H7.26086C7.26086 77.9445 7.26086 77.8334 7.31672 77.7222Z" fill="white"/>
<path d="M141.195 77.5555C141.195 77.4444 141.251 77.3888 141.307 77.2777C141.363 77.2222 141.419 77.1111 141.474 76.9999C141.53 76.8888 141.642 76.8333 141.754 76.7222H203.359C203.359 76.8333 203.359 76.9444 203.303 76.9999C203.247 77.1111 203.247 77.1666 203.191 77.2222C203.136 77.2777 203.08 77.3888 203.024 77.4444C202.968 77.5555 202.856 77.611 202.745 77.7222H141.139C141.195 77.7222 141.195 77.6666 141.195 77.5555Z" fill="white"/>
</svg>
