<svg width="56" height="40" viewBox="0 0 56 40" fill="none" xmlns="http://www.w3.org/2000/svg">
<path d="M30.1358 39.6328C29.9458 39.6329 29.7571 39.6028 29.5766 39.5435L10.6082 33.202V35.9722C10.6082 36.2042 10.5625 36.4338 10.4739 36.648C10.3852 36.8623 10.2553 37.0569 10.0915 37.2208C9.92769 37.3848 9.73325 37.5147 9.51926 37.6034C9.30528 37.692 9.07595 37.7375 8.84439 37.7373H1.76379C1.53223 37.7375 1.30291 37.692 1.08893 37.6034C0.874942 37.5147 0.680486 37.3848 0.516686 37.2208C0.352885 37.0569 0.222952 36.8623 0.134296 36.648C0.0456402 36.4338 -7.46943e-08 36.2042 0 35.9722V19.1154C0 18.8834 0.0456252 18.6537 0.134264 18.4394C0.222902 18.225 0.352828 18.0303 0.51661 17.8663C0.680392 17.7022 0.874825 17.5721 1.08882 17.4833C1.30281 17.3946 1.53216 17.3489 1.76379 17.3489H8.85148C9.31926 17.3489 9.76788 17.535 10.0987 17.8663C10.4294 18.1976 10.6153 18.6469 10.6153 19.1154V20.7203H15.6263C15.8104 20.7206 15.9934 20.7498 16.1685 20.8067L26.3024 24.0916H33.8219C34.8019 24.0887 35.7543 24.417 36.525 25.0234C37.2956 25.6298 37.8395 26.4789 38.0685 27.4332L49.7554 24.7197C50.8561 24.4541 52.016 24.6076 53.01 25.1505C54.004 25.6933 54.7612 26.5867 55.1345 27.6572C55.3315 28.2259 55.4098 28.8289 55.3645 29.4291C55.3192 30.0293 55.1513 30.6138 54.8712 31.1463C54.583 31.6936 54.187 32.1768 53.7073 32.5666C53.2275 32.9565 52.6738 33.245 52.0797 33.4146L30.6185 39.5648C30.4616 39.6105 30.2991 39.6334 30.1358 39.6328ZM10.6153 29.479L30.1754 36.0134L51.1256 30.0107C51.2599 29.9742 51.3853 29.9108 51.4943 29.8243C51.6033 29.7377 51.6937 29.6299 51.7598 29.5074C51.8167 29.3992 51.8508 29.2804 51.86 29.1585C51.8693 29.0366 51.8535 28.9141 51.8136 28.7985C51.7199 28.5563 51.5408 28.3569 51.3102 28.238C51.0796 28.1192 50.8135 28.0891 50.5622 28.1534L37.0239 31.298C36.6128 31.7337 36.117 32.0807 35.5671 32.3174C35.0172 32.5541 34.4247 32.6757 33.8261 32.6746H22.5583C22.0909 32.6746 21.6426 32.4886 21.3121 32.1576C20.9816 31.8266 20.7959 31.3776 20.7959 30.9095C20.7959 30.4414 20.9816 29.9924 21.3121 29.6614C21.6426 29.3304 22.0909 29.1444 22.5583 29.1444H33.8219C33.9375 29.1452 34.0521 29.1228 34.159 29.0788C34.266 29.0347 34.3631 28.9698 34.4447 28.8878C34.4921 28.7991 34.5471 28.7147 34.6089 28.6355C34.6406 28.5546 34.657 28.4685 34.657 28.3817C34.6468 28.1697 34.5532 27.9704 34.3967 27.8272C34.2403 27.684 34.0336 27.6087 33.8219 27.6175H26.0236C25.839 27.6172 25.6556 27.588 25.48 27.5311L15.3475 24.2462H10.6153V29.479ZM3.52616 34.2072H7.08769V20.8805H3.52616V34.2072Z" fill="#3B2E2D"/>
<path d="M44.3819 28.5743C44.1504 28.5745 43.9211 28.529 43.7072 28.4404C43.4933 28.3517 43.299 28.2217 43.1353 28.0578C42.9716 27.8938 42.8418 27.6992 42.7533 27.485C42.6648 27.2707 42.6193 27.0411 42.6195 26.8093V17.9442H33.308V20.4663C33.295 20.926 33.1035 21.3624 32.7743 21.683C32.4451 22.0035 32.0041 22.1828 31.5449 22.1828C31.0858 22.1828 30.6448 22.0035 30.3155 21.683C29.9863 21.3624 29.7949 20.926 29.7819 20.4663V17.9442H20.4717V22.9403C20.4717 23.4088 20.2859 23.8581 19.9551 24.1894C19.6244 24.5207 19.1757 24.7068 18.708 24.7068C18.2402 24.7068 17.7916 24.5207 17.4608 24.1894C17.13 23.8581 16.9442 23.4088 16.9442 22.9403V17.9442H16.7333C16.5017 17.9444 16.2724 17.8988 16.0584 17.8102C15.8444 17.7216 15.65 17.5916 15.4862 17.4277C15.3224 17.2638 15.1924 17.0691 15.1038 16.8549C15.0151 16.6406 14.9695 16.411 14.9695 16.1791V12.3143C14.9762 11.3274 15.3737 10.3835 16.0746 9.68977C16.7755 8.99603 17.7226 8.60915 18.708 8.61406H44.3819C45.3673 8.60915 46.3144 8.99603 47.0153 9.68977C47.7162 10.3835 48.1136 11.3274 48.1204 12.3143V16.1791C48.1204 16.411 48.0747 16.6406 47.9861 16.8549C47.8974 17.0691 47.7675 17.2638 47.6037 17.4277C47.4399 17.5916 47.2454 17.7216 47.0315 17.8102C46.8175 17.8988 46.5882 17.9444 46.3566 17.9442H46.1457V26.8093C46.1457 27.0412 46.1 27.2708 46.0114 27.4851C45.9227 27.6993 45.7928 27.8939 45.629 28.0579C45.4652 28.2218 45.2707 28.3518 45.0568 28.4404C44.8428 28.529 44.6135 28.5745 44.3819 28.5743ZM44.3819 14.414H44.5942V12.3143C44.5875 12.2642 44.5616 12.2186 44.522 12.1871C44.4824 12.1557 44.4322 12.1408 44.3819 12.1456H33.308V14.414H44.3819ZM18.708 14.414H29.7833V12.1456H18.708C18.6579 12.1412 18.608 12.1562 18.5687 12.1876C18.5294 12.2191 18.5038 12.2644 18.497 12.3143V14.414H18.708Z" fill="#3B2E2D"/>
<path d="M40.8841 8.20585H22.1124C21.5443 8.25778 20.9715 8.19052 20.4307 8.00836C19.89 7.8262 19.393 7.53314 18.9717 7.14788C18.5503 6.76262 18.2138 6.29362 17.9835 5.77081C17.7532 5.248 17.6343 4.68285 17.6343 4.11143C17.6343 3.54001 17.7532 2.97486 17.9835 2.45205C18.2138 1.92924 18.5503 1.46024 18.9717 1.07498C19.393 0.689723 19.89 0.396665 20.4307 0.214505C20.9715 0.0323454 21.5443 -0.0349162 22.1124 0.0170131H23.6469C24.5795 0.0117949 25.4922 0.286874 26.2671 0.80669L31.5047 4.34252L36.7422 0.80669C37.5165 0.286747 38.4288 0.0116428 39.361 0.0170131H40.8955C41.4636 -0.0349162 42.0364 0.0323454 42.5772 0.214505C43.1179 0.396665 43.6149 0.689723 44.0362 1.07498C44.4576 1.46024 44.7942 1.92924 45.0244 2.45205C45.2547 2.97486 45.3736 3.54001 45.3736 4.11143C45.3736 4.68285 45.2547 5.248 45.0244 5.77081C44.7942 6.29362 44.4576 6.76262 44.0362 7.14788C43.6149 7.53314 43.1179 7.8262 42.5772 8.00836C42.0364 8.19052 41.4636 8.25778 40.8955 8.20585H40.8841ZM37.3113 4.68136H40.8841C41.3951 4.68136 41.7915 4.37796 41.7915 4.11427C41.7915 3.85057 41.3951 3.54718 40.8841 3.54718H39.3497C39.1208 3.54436 38.8962 3.60948 38.7042 3.73432L37.3113 4.68136ZM22.1124 3.54718C21.6014 3.54718 21.2051 3.85199 21.2051 4.11427C21.2051 4.37655 21.6014 4.68136 22.1124 4.68136H25.6867L24.2938 3.73998C24.1013 3.61519 23.8762 3.55009 23.6469 3.55284L22.1124 3.54718Z" fill="#EA5A00"/>
</svg>
