<svg width="41" height="64" viewBox="0 0 41 64" fill="none" xmlns="http://www.w3.org/2000/svg">
<path d="M39.2 63.7H1.60001C0.700006 63.7 0 63 0 62.1V1.60001C0 0.700006 0.700006 0 1.60001 0H39.2C40.1 0 40.8 0.700006 40.8 1.60001V62.1C40.8 63 40.1 63.7 39.2 63.7ZM3.2 60.5H37.6V55.7H3.2V60.5ZM3.2 52.4H37.6V3.2H3.2V52.4ZM22.4 60H18.5C17.6 60 16.9 59.3 16.9 58.4C16.9 57.5 17.6 56.8 18.5 56.8H22.4C23.3 56.8 24 57.5 24 58.4C24 59.3 23.2 60 22.4 60Z" fill="#3B2E2D"/>
<path d="M34.1001 43.4H30.2001C29.3001 43.4 28.6001 42.7 28.6001 41.8C28.6001 40.9 29.3001 40.2 30.2001 40.2H32.5001V37.8C32.5001 36.9 33.2001 36.2 34.1001 36.2C35.0001 36.2 35.7001 36.9 35.7001 37.8V41.8C35.7001 42.7 35.0001 43.4 34.1001 43.4ZM10.6001 43.4H6.70009C5.80009 43.4 5.1001 42.7 5.1001 41.8V37.8C5.1001 36.9 5.80009 36.2 6.70009 36.2C7.60009 36.2 8.30009 36.9 8.30009 37.8V40.2H10.6001C11.5001 40.2 12.2001 40.9 12.2001 41.8C12.2001 42.7 11.5001 43.4 10.6001 43.4ZM28.3001 37.4H12.6001C11.7001 37.4 11.0001 36.7 11.0001 35.8V19.7C11.0001 18.8 11.7001 18.1 12.6001 18.1H28.3001C29.2001 18.1 29.9001 18.8 29.9001 19.7V35.8C29.9001 36.7 29.2001 37.4 28.3001 37.4ZM25.0001 34.2H26.6001V27.8H23.9001C23.9001 28.7 23.2001 29.3 22.3001 29.3C21.4001 29.3 20.7001 28.6 20.7001 27.7V25.4H18.4001C17.5001 25.4 16.8001 24.7 16.8001 23.8V21.3H14.2001V26.1H16.5001C17.4001 26.1 18.1001 26.8 18.1001 27.7C18.1001 28.6 17.4001 29.3 16.5001 29.3H14.2001V34.2H16.8001V31.8C16.8001 30.9 17.5001 30.2 18.4001 30.2C19.3001 30.2 20.0001 30.9 20.0001 31.8V34.2H21.7001V31.8C21.7001 30.9 22.4001 30.2 23.3001 30.2C24.2001 30.2 24.9001 30.9 24.9001 31.8V34.2H25.0001ZM24.0001 24.5H26.7001V21.2H20.1001V22.1H22.4001C23.3001 22.1 24.0001 22.8 24.0001 23.7V24.5ZM34.1001 19.3C33.2001 19.3 32.5001 18.6 32.5001 17.7V15.2H30.2001C29.3001 15.2 28.6001 14.5 28.6001 13.6C28.6001 12.7 29.3001 12 30.2001 12H34.1001C35.0001 12 35.7001 12.7 35.7001 13.6V17.6C35.7001 18.5 35.0001 19.3 34.1001 19.3ZM6.70009 19.3C5.80009 19.3 5.1001 18.6 5.1001 17.7V13.7C5.1001 12.8 5.80009 12.1 6.70009 12.1H10.6001C11.5001 12.1 12.2001 12.8 12.2001 13.7C12.2001 14.6 11.5001 15.3 10.6001 15.3H8.30009V17.7C8.30009 18.5 7.60009 19.3 6.70009 19.3Z" fill="#EA5A00"/>
</svg>
