<svg width="190" height="64" viewBox="0 0 190 64" fill="none" xmlns="http://www.w3.org/2000/svg">
<path d="M16.9172 37.0506C17.3723 37.5327 17.9994 37.8136 18.6607 37.8317C19.322 37.8498 19.9634 37.6036 20.444 37.1471C20.4773 37.1156 20.5087 37.0841 20.54 37.0506C21.4889 36.0722 22.786 35.5124 24.146 35.4943C25.5059 35.4762 26.8173 36.0014 27.7917 36.9542C28.766 37.9071 29.3235 39.2096 29.3415 40.5752C29.3595 41.9409 28.8366 43.2576 27.8877 44.236L27.7917 44.3325L9.66161 62.5361C8.69283 63.4648 7.40067 63.976 6.06143 63.9604C4.72219 63.9448 3.44218 63.4037 2.49512 62.4527C1.54807 61.5017 1.00915 60.2163 0.993607 58.8715C0.978064 57.5267 1.48713 56.229 2.41195 55.2562L14.1877 43.4235L14.3171 43.2956L14.4464 43.1638C14.8929 42.686 15.1322 42.0496 15.1116 41.3947C15.091 40.7398 14.8123 40.12 14.3367 39.6715L14.3171 39.6537C13.8151 39.2134 13.1712 38.9707 12.5047 38.9707C11.8381 38.9707 11.1942 39.2134 10.6922 39.6537L10.5629 39.7835L10.4336 39.9134L8.75443 41.6036C7.77883 42.5416 6.4803 43.0652 5.12961 43.0652C3.77892 43.0652 2.48036 42.5416 1.50477 41.6036C1.0272 41.1268 0.648011 40.5601 0.388898 39.9359C0.129784 39.3117 -0.00415024 38.6423 -0.00524229 37.9661C-0.00633434 37.2898 0.125434 36.62 0.38253 35.9949C0.639626 35.3699 1.017 34.802 1.49302 34.3237L1.50477 34.3119L12.3832 23.3881C12.8551 22.8918 13.421 22.4951 14.0477 22.2215C14.6745 21.9479 15.3493 21.8028 16.0327 21.7948C16.716 21.7868 17.3941 21.9162 18.0269 22.1751C18.6598 22.434 19.2347 22.8174 19.718 23.3026C20.2012 23.7879 20.583 24.3652 20.8408 25.0007C21.0987 25.6362 21.2274 26.3171 21.2195 27.0033C21.2116 27.6895 21.0671 28.3672 20.7946 28.9965C20.5222 29.6259 20.1272 30.1941 19.6328 30.6679L16.9152 33.3989C16.4349 33.8556 16.1547 34.4852 16.1364 35.1493C16.118 35.8133 16.3629 36.4577 16.8172 36.9405C16.8486 36.974 16.8819 37.0074 16.9152 37.0389" fill="white"/>
<path d="M51.3277 36.3877C51.9521 36.8227 52.4809 37.3816 52.8816 38.03C53.2823 38.6784 53.5464 39.4025 53.6573 40.1574H49.5152C49.4501 39.7901 49.3125 39.4396 49.1106 39.1264C48.9088 38.8132 48.6466 38.5436 48.3396 38.3335C47.6925 37.8883 46.9213 37.661 46.1373 37.6843C45.8362 37.6498 45.5313 37.6781 45.2417 37.7675C44.9521 37.8569 44.684 38.0054 44.4542 38.2037C44.2518 38.3538 44.0876 38.5498 43.9753 38.7759C43.8629 39.0019 43.8054 39.2516 43.8076 39.5042C43.797 39.7078 43.839 39.9106 43.9297 40.093C44.0203 40.2754 44.1565 40.4312 44.3249 40.545C44.7141 40.838 45.1529 41.058 45.62 41.1944C46.2986 41.4145 46.9912 41.5887 47.693 41.7158C48.9882 41.9735 50.0227 42.2351 50.9221 42.5027C51.7315 42.7778 52.4491 43.273 52.9951 43.9331C53.3204 44.2778 53.5693 44.6879 53.7253 45.1363C53.8814 45.5846 53.941 46.0611 53.9003 46.5342C53.9054 47.172 53.7546 47.8012 53.4612 48.3669C53.1677 48.9326 52.7406 49.4173 52.2172 49.7787C50.8126 50.6225 49.1907 51.0299 47.5558 50.9494C45.6956 51.0655 43.8441 50.612 42.246 49.6488C41.5909 49.2062 41.0345 48.6317 40.6122 47.9617C40.1899 47.2918 39.9109 46.541 39.7928 45.757H43.9369C43.9862 46.1292 44.1173 46.4857 44.3206 46.8008C44.5239 47.1159 44.7944 47.3817 45.1126 47.579C45.8559 48.0231 46.7087 48.2481 47.5735 48.2283C47.8745 48.2623 48.1793 48.2336 48.4689 48.1443C48.7584 48.0549 49.0265 47.9067 49.2566 47.7088C49.4482 47.5487 49.6048 47.3506 49.7164 47.1267C49.828 46.9029 49.8922 46.6582 49.9051 46.4083C49.9155 46.2045 49.8732 46.0015 49.7822 45.8191C49.6912 45.6367 49.5547 45.4811 49.3859 45.3674C48.9969 45.0741 48.5581 44.8542 48.0908 44.7182C47.3719 44.4848 46.6354 44.3104 45.8885 44.1968C44.8379 43.9969 43.8002 43.734 42.7809 43.4098C41.9953 43.1522 41.2843 42.7057 40.7098 42.1092C40.1244 41.42 39.8028 40.5439 39.8027 39.638C39.7829 38.9977 39.9272 38.363 40.222 37.7949C40.5167 37.2267 40.9519 36.7442 41.4857 36.3936C42.8768 35.5041 44.5004 35.0513 46.149 35.093C47.9749 34.8735 49.8174 35.3342 51.3277 36.3877Z" fill="white"/>
<path d="M68.5505 47.3114V50.6916H66.2189C64.6408 50.8218 63.0709 50.3583 61.8142 49.3911C61.2499 48.8673 60.8155 48.2181 60.5457 47.4955C60.2759 46.7729 60.1782 45.9969 60.2604 45.2297V38.4693H57.9327V35.0969H60.2624V31.1953H64.6671V35.0969H68.5525V38.4772H64.6671V45.2395C64.6671 46.0265 64.7964 46.5401 65.1863 46.7998C65.6954 47.0974 66.2817 47.2345 66.8694 47.1934H68.5525L68.5505 47.3114Z" fill="white"/>
<path d="M77.7438 39.6361C76.9056 40.5055 76.4405 41.6704 76.4486 42.8805C76.4027 43.4848 76.4956 44.0916 76.7201 44.6541C76.9447 45.2166 77.2949 45.7199 77.7438 46.1249C78.6538 46.8792 79.7968 47.2917 80.9767 47.2917C82.1567 47.2917 83.2997 46.8792 84.2097 46.1249C84.6486 45.712 84.992 45.2076 85.2158 44.647C85.4395 44.0864 85.5382 43.4835 85.5049 42.8805C85.5513 42.2762 85.4586 41.6691 85.234 41.1065C85.0095 40.5439 84.659 40.0409 84.2097 39.6361C83.3177 38.8505 82.1649 38.4292 80.9787 38.4555C80.3849 38.3989 79.786 38.4755 79.2252 38.6797C78.6644 38.8838 78.1557 39.2105 77.736 39.6361H77.7438ZM84.2097 35.8662C85.1996 36.4179 85.9754 37.2885 86.412 38.3374V35.0969H90.6854V50.6936H86.416V47.4492C85.98 48.499 85.2041 49.3703 84.2136 49.9223C83.0711 50.5706 81.7707 50.8855 80.4595 50.8313C79.1078 50.8709 77.7691 50.5577 76.574 49.9223C75.4277 49.2897 74.4844 48.3424 73.8544 47.1913C73.1493 45.8734 72.7924 44.396 72.8179 42.9002C72.8082 41.4061 73.1641 39.9325 73.8544 38.6089C74.483 37.4568 75.4266 36.5092 76.574 35.878C77.7669 35.2398 79.1045 34.9238 80.4556 34.9611C81.7698 34.8889 83.0763 35.205 84.2136 35.8702" fill="white"/>
<path d="M122.549 36.6473C123.164 37.3081 123.641 38.0858 123.953 38.9346C124.264 39.7834 124.404 40.6861 124.363 41.5898V60.1889H120.084V41.9833C120.104 41.4828 120.024 40.9832 119.847 40.5146C119.671 40.046 119.402 39.6181 119.057 39.2563C118.688 38.9283 118.257 38.6786 117.79 38.5223C117.323 38.3661 116.828 38.3065 116.338 38.3472C115.878 38.3396 115.421 38.428 114.997 38.6069C114.573 38.7857 114.191 39.0511 113.875 39.3861C113.491 39.7759 113.2 40.2466 113.021 40.764C112.842 41.2814 112.78 41.8324 112.84 42.3768V50.5657H108.043V41.9833C108.064 41.4826 107.983 40.9831 107.806 40.5145C107.629 40.0459 107.36 39.618 107.015 39.2563C106.646 38.9281 106.215 38.6782 105.748 38.522C105.28 38.3657 104.786 38.3063 104.295 38.3472C103.247 38.3077 102.225 38.6804 101.446 39.3861C101.063 39.7759 100.771 40.2466 100.592 40.764C100.413 41.2814 100.352 41.8324 100.412 42.3768V50.5657H96.0071V34.9631H100.412V37.9537C100.858 36.9434 101.635 36.1171 102.614 35.6123C103.653 35.0785 104.806 34.8084 105.972 34.8254C107.243 34.7687 108.502 35.0845 109.597 35.7343C110.627 36.3347 111.442 37.2446 111.929 38.3355C112.461 37.2339 113.32 36.3251 114.388 35.7343C115.484 35.085 116.744 34.7692 118.015 34.8254C119.693 34.8744 121.299 35.5193 122.549 36.6453" fill="white"/>
<path d="M136.017 39.6361C135.352 40.2546 134.892 41.0643 134.701 41.9546C134.51 42.845 134.597 43.7727 134.951 44.6116C135.304 45.4505 135.906 46.1597 136.675 46.6424C137.444 47.1252 138.343 47.358 139.248 47.3094C139.838 47.3468 140.429 47.2622 140.984 47.0608C141.539 46.8594 142.048 46.5456 142.477 46.1388C143.316 45.2693 143.781 44.1044 143.773 42.8943C143.819 42.29 143.727 41.6829 143.502 41.1203C143.277 40.5576 142.927 40.0545 142.477 39.6498C141.597 38.847 140.436 38.4263 139.248 38.4791C138.658 38.4218 138.063 38.4959 137.504 38.6963C136.946 38.8966 136.438 39.2181 136.017 39.638V39.6361ZM143.528 35.8662C144.674 36.4983 145.618 37.4457 146.247 38.5972C146.953 39.9149 147.309 41.3925 147.282 42.8883C147.293 44.3823 146.937 45.8561 146.247 47.1796C145.618 48.3311 144.674 49.2784 143.528 49.9105C142.333 50.5459 140.994 50.8591 139.642 50.8195C138.331 50.8745 137.03 50.5597 135.888 49.9105C134.898 49.3589 134.121 48.4884 133.684 47.4393V60.3187H129.279V35.097H133.684V38.3395C134.121 37.2904 134.898 36.4198 135.888 35.8682C137.024 35.2039 138.329 34.8879 139.642 34.9592C140.998 34.8908 142.345 35.2086 143.528 35.8761" fill="white"/>
<path d="M163.209 38.9867C162.362 38.3129 161.312 37.9463 160.231 37.9463C159.15 37.9463 158.101 38.3129 157.253 38.9867C156.832 39.3314 156.497 39.7688 156.272 40.265C156.048 40.7612 155.94 41.3027 155.958 41.8475H164.244C164.324 41.3218 164.271 40.7845 164.09 40.2847C163.909 39.7849 163.607 39.3386 163.209 38.9867ZM168.519 43.6695H155.958C155.941 44.2522 156.047 44.8319 156.27 45.3699C156.494 45.908 156.829 46.3921 157.253 46.79C158.044 47.4745 159.058 47.8441 160.102 47.8289C160.967 47.8489 161.821 47.6239 162.565 47.1796C163.202 46.7504 163.662 46.1026 163.858 45.3576H168.521C168.314 46.4235 167.822 47.4127 167.097 48.2185C166.319 49.123 165.344 49.8353 164.248 50.3001C162.928 50.8361 161.514 51.1007 160.09 51.0784C158.666 51.0561 157.261 50.7473 155.958 50.1703C154.712 49.5843 153.674 48.6319 152.98 47.4393C152.214 46.1456 151.853 44.6503 151.945 43.1481C151.934 41.6541 152.289 40.1804 152.98 38.8569C153.706 37.6915 154.736 36.7473 155.958 36.126C157.337 35.4885 158.844 35.1774 160.363 35.2169C161.883 35.1504 163.396 35.4627 164.767 36.126C165.954 36.74 166.975 37.6321 167.745 38.727C168.419 39.8684 168.776 41.17 168.78 42.4968C168.665 42.8837 168.578 43.2781 168.519 43.6773" fill="white"/>
<path d="M180.822 35.7364C181.9 35.1622 183.098 34.8507 184.318 34.8273V39.1165H183.013C179.782 39.1165 178.222 40.4191 178.222 43.1501V50.6915H173.816V35.0969H178.222V38.0816C178.926 37.1411 179.806 36.3478 180.812 35.7463" fill="white"/>
<path d="M112.066 60.3168C111.937 60.1869 111.937 60.1869 111.937 60.057V56.0217C111.937 55.8938 111.937 55.7638 112.066 55.7638C112.195 55.634 112.195 55.634 112.325 55.634C112.454 55.634 112.583 55.634 112.583 55.7638C112.713 55.8937 112.713 55.8938 112.713 56.0217V60.0551C112.713 60.1849 112.713 60.3128 112.583 60.3128C112.454 60.4426 112.454 60.4426 112.325 60.4426C112.19 60.3127 112.19 60.3128 112.06 60.3128L112.066 60.3168ZM109.864 55.634C109.993 55.7639 109.993 55.7639 109.993 55.8938V59.9251C109.993 60.055 109.993 60.1849 109.864 60.1849C109.734 60.3148 109.734 60.3148 109.605 60.3148C109.534 60.3241 109.462 60.3171 109.394 60.2947C109.327 60.2722 109.265 60.2347 109.213 60.1849L106.752 56.9405V59.9311C106.752 60.061 106.752 60.1908 106.623 60.1908C106.494 60.3206 106.494 60.3207 106.364 60.3207C106.235 60.3207 106.106 60.3206 106.106 60.1908C105.976 60.0609 105.976 60.061 105.976 59.9311V55.8938C105.976 55.7639 105.976 55.634 106.106 55.634C106.235 55.5041 106.235 55.5042 106.364 55.5042C106.494 55.5042 106.623 55.5041 106.623 55.634L109.084 58.8765V56.0177C109.084 55.8878 109.084 55.7579 109.213 55.7579C109.343 55.7579 109.343 55.6281 109.472 55.6281C109.725 55.5022 109.854 55.6281 109.854 55.6281L109.864 55.634ZM101.438 60.1849C101.307 60.055 101.307 60.055 101.307 59.9251V56.0217C101.307 55.8938 101.307 55.7638 101.438 55.7638C101.566 55.634 101.566 55.634 101.695 55.634C101.824 55.634 101.954 55.634 101.954 55.7638C102.083 55.8937 102.083 55.8938 102.083 56.0217V59.6635H104.027C104.131 59.6572 104.233 59.6927 104.311 59.7621C104.389 59.8314 104.436 59.9291 104.442 60.0335C104.448 60.1378 104.413 60.2403 104.344 60.3186C104.275 60.3968 104.178 60.4443 104.074 60.4505C104.058 60.4526 104.042 60.4526 104.027 60.4505H101.699C101.699 60.3207 101.57 60.3207 101.438 60.1928V60.1849ZM96.5166 58.4948H98.3309L97.4238 56.545L96.5166 58.4948ZM99.7475 60.0551C99.7475 60.1849 99.7476 60.185 99.6182 60.3148C99.4889 60.4447 99.4889 60.4446 99.3596 60.4446H99.101L98.9716 60.3148L98.5798 59.4058H96.256L95.8641 60.3148C95.8646 60.3315 95.8618 60.3481 95.8559 60.3637C95.8499 60.3793 95.8409 60.3935 95.8294 60.4056C95.818 60.4177 95.8042 60.4274 95.789 60.4341C95.7737 60.4408 95.7573 60.4444 95.7407 60.4446H95.4781C95.3488 60.4446 95.2195 60.4447 95.2195 60.3148C95.0902 60.185 95.0901 60.1849 95.0901 60.0551V59.9251L96.9045 55.8938C96.9045 55.7639 97.0319 55.7639 97.0319 55.634C97.1612 55.634 97.1612 55.5042 97.2925 55.5042C97.4237 55.5042 97.4198 55.5041 97.5492 55.634C97.6785 55.634 97.6784 55.7639 97.6784 55.8938L99.485 59.9232C99.7574 59.9232 99.7573 59.9233 99.7573 60.0551H99.7475ZM91.4594 60.0551C91.4594 59.9252 91.4595 59.9252 91.5888 59.7953C91.7181 59.6655 91.7181 59.6655 91.8474 59.6655H92.106C92.2429 59.6445 92.3754 59.6006 92.4979 59.5356C92.6272 59.4077 92.6272 59.2759 92.6272 59.0162V56.0217C92.6272 55.8938 92.6272 55.7638 92.7565 55.7638C92.8858 55.634 92.8859 55.634 93.0152 55.634C93.1445 55.634 93.2738 55.634 93.2738 55.7638C93.2738 55.8937 93.4031 55.8938 93.4031 56.0217V59.0122C93.4031 59.9232 93.0112 60.3127 92.108 60.4426H91.8572C91.7547 60.4383 91.6575 60.3955 91.5849 60.3226C91.5123 60.2498 91.4696 60.1522 91.4653 60.0492L91.4594 60.0551ZM89.3884 59.268C89.642 58.8821 89.7772 58.4299 89.7772 57.9675C89.7772 57.5051 89.642 57.0529 89.3884 56.667C89.1021 56.4136 88.7335 56.2737 88.3519 56.2737C87.9702 56.2737 87.6017 56.4136 87.3154 56.667C87.0617 57.0529 86.9265 57.5051 86.9265 57.9675C86.9265 58.4299 87.0617 58.8821 87.3154 59.268C87.6028 59.5191 87.9709 59.6575 88.3519 59.6575C88.7328 59.6575 89.1009 59.5191 89.3884 59.268ZM87.0567 60.0551C86.6966 59.8547 86.4189 59.5326 86.273 59.146C86.1013 58.7341 86.0129 58.2921 86.0129 57.8456C86.0129 57.399 86.1013 56.9569 86.273 56.545C86.419 56.158 86.6966 55.8352 87.0567 55.634C87.4108 55.4234 87.8231 55.3331 88.2323 55.3763C88.639 55.3678 89.0419 55.4561 89.408 55.634C89.7679 55.8355 90.0454 56.1581 90.1917 56.545C90.3625 56.9572 90.4503 57.3992 90.4503 57.8456C90.4503 58.292 90.3625 58.7338 90.1917 59.146C90.0455 59.5324 89.7679 59.8545 89.408 60.0551C89.0538 60.2654 88.6418 60.3565 88.2323 60.3148C88.0317 60.3662 87.8217 60.3694 87.6196 60.3243C87.4174 60.2792 87.2286 60.187 87.0685 60.0551H87.0567ZM81.8781 60.1849C81.7488 60.055 81.7488 60.055 81.7488 59.9251V56.0217C81.7488 55.8938 81.7488 55.7638 81.8781 55.7638C82.0074 55.634 82.0075 55.634 82.1368 55.634C82.2661 55.634 82.3954 55.634 82.3954 55.7638C82.5247 55.8937 82.5247 55.8938 82.5247 56.0217V59.6635H84.4664C84.5704 59.6635 84.67 59.705 84.7435 59.7788C84.817 59.8526 84.8583 59.9526 84.8583 60.057C84.8583 60.1614 84.817 60.2614 84.7435 60.3352C84.67 60.409 84.5704 60.4505 84.4664 60.4505H82.2641C82.1466 60.3128 82.0231 60.3128 81.8879 60.1849H81.8781ZM75.1438 60.0551C75.1438 59.9252 75.1437 59.9252 75.2731 59.7953C75.4024 59.6655 75.4024 59.6655 75.5317 59.6655H75.7903C75.9273 59.6445 76.0598 59.6005 76.1822 59.5356C76.3116 59.4077 76.3115 59.2759 76.3115 59.0162V56.0217C76.3115 55.8938 76.3115 55.7638 76.4409 55.7638C76.5702 55.634 76.5702 55.634 76.6995 55.634C76.8288 55.634 76.9581 55.634 76.9581 55.7638C76.9581 55.8937 77.0875 55.8938 77.0875 56.0217V59.0122C77.0875 59.9232 76.6956 60.3127 75.7923 60.4426H75.5337C75.4885 60.4493 75.4424 60.4469 75.3981 60.4355C75.3539 60.4241 75.3123 60.4041 75.2759 60.3764C75.2394 60.3488 75.2088 60.3141 75.1858 60.2745C75.1627 60.2349 75.1478 60.1911 75.1418 60.1456C75.1379 60.1156 75.1379 60.0851 75.1418 60.0551H75.1438ZM70.8704 60.1849C70.7411 60.055 70.7411 60.055 70.7411 59.9251V56.0217C70.7411 55.8938 70.7411 55.7638 70.8704 55.7638C70.9997 55.634 70.9997 55.634 71.129 55.634H73.59C73.7193 55.634 73.8486 55.634 73.8486 55.7638C73.9779 55.7638 73.978 55.8938 73.978 56.0217C73.978 56.1495 73.9779 56.2813 73.8486 56.2813C73.7193 56.2813 73.7193 56.4112 73.59 56.4112H71.6483V57.7117H73.4626C73.592 57.7117 73.7213 57.7117 73.7213 57.8416C73.8506 57.8416 73.8506 57.9715 73.8506 58.1014C73.8506 58.2312 73.8506 58.2311 73.7213 58.361C73.5919 58.361 73.592 58.4909 73.4626 58.4909H71.6483V59.9213H73.5919C73.7212 59.9213 73.8506 59.9213 73.8506 60.0511C73.9799 60.0511 73.9799 60.181 73.9799 60.3109C73.9799 60.4407 73.9799 60.4406 73.8506 60.5705C73.7213 60.5705 73.7212 60.7004 73.5919 60.7004H71.133C71.0036 60.3069 71.0036 60.3069 70.8743 60.1849H70.8704ZM68.0215 60.3148C67.8921 60.185 67.8921 60.1849 67.8921 60.0551V56.0217C67.8921 55.8938 67.8921 55.7638 68.0215 55.7638C68.1508 55.634 68.1507 55.634 68.2801 55.634C68.4094 55.634 68.5387 55.634 68.5387 55.7638C68.6681 55.8937 68.668 55.8938 68.668 56.0217V60.0551C68.668 60.1849 68.6681 60.3128 68.5387 60.3128C68.4094 60.4426 68.4094 60.4426 68.2801 60.4426C68.2801 60.3127 68.1527 60.3128 68.0234 60.3128L68.0215 60.3148ZM66.3383 59.9213C66.3518 60.0121 66.3289 60.1045 66.2745 60.1783C66.2201 60.2521 66.1388 60.3012 66.0484 60.3148C66.016 60.3207 65.9828 60.3207 65.9504 60.3148H63.1015C62.9722 60.3148 62.8428 60.3148 62.8428 60.1849C62.8428 60.055 62.7136 60.055 62.7136 59.9251C62.7136 59.7953 62.7135 59.6655 62.8428 59.6655L65.3038 56.2852H63.2308C63.1269 56.2852 63.0272 56.2438 62.9537 56.17C62.8802 56.0962 62.8389 55.9961 62.8389 55.8917C62.8389 55.7874 62.8802 55.6873 62.9537 55.6135C63.0272 55.5397 63.1269 55.4982 63.2308 55.4982H65.9524C66.0817 55.4982 66.2091 55.4983 66.2091 55.6281C66.2091 55.758 66.3383 55.758 66.3383 55.8879C66.3383 56.0177 66.3384 56.1475 66.2091 56.1475L63.7481 59.5297H65.9524C66.2188 59.6635 66.3481 59.7934 66.3481 59.9232L66.3383 59.9213ZM58.8281 59.6635C59.2243 59.7136 59.6241 59.6038 59.9397 59.3581C60.2553 59.1124 60.4608 58.751 60.5112 58.3532C60.5269 58.2271 60.5269 58.0995 60.5112 57.9735C60.5112 56.7929 59.992 56.2833 58.8281 56.2833H58.0443V59.6615L58.8281 59.6635ZM57.2743 60.183C57.145 60.0531 57.145 60.0531 57.145 59.9232V56.0196C57.145 55.8917 57.145 55.7619 57.2743 55.7619C57.4037 55.632 57.4036 55.6321 57.533 55.6321H58.8281C59.4936 55.6022 60.1442 55.8352 60.6405 56.2813C61.0617 56.742 61.2935 57.346 61.2891 57.9714C61.2931 58.6364 61.0635 59.2817 60.6405 59.7934C60.4119 60.0389 60.1281 60.226 59.8128 60.339C59.4975 60.4519 59.1599 60.4874 58.8281 60.4426H57.533C57.4174 60.3127 57.2841 60.3128 57.2841 60.1849L57.2743 60.183ZM54.1667 57.5818C54.2349 57.5307 54.2925 57.4665 54.3359 57.3929C54.3793 57.3194 54.4078 57.238 54.4198 57.1534C54.4319 57.0687 54.4272 56.9825 54.4059 56.8997C54.3847 56.8169 54.3473 56.7391 54.2961 56.6709C54.2595 56.622 54.2159 56.5789 54.1667 56.543C54.0374 56.4131 53.7749 56.4131 53.383 56.4131H52.2074V57.9735H53.383C53.7749 57.7098 54.0296 57.7098 54.1667 57.5799V57.5818ZM55.4737 60.0511C55.4737 60.181 55.4737 60.181 55.3443 60.3109C55.215 60.4407 55.215 60.4407 55.0876 60.4407H54.827C54.8105 60.4412 54.794 60.4384 54.7786 60.4324C54.7632 60.4264 54.7491 60.4174 54.7372 60.4059C54.7254 60.3943 54.7159 60.3804 54.7095 60.3651C54.703 60.3498 54.6997 60.3334 54.6997 60.3168L53.7925 58.7564C53.6632 58.6266 53.6632 58.4968 53.5339 58.4968C53.4045 58.4968 53.2753 58.3669 53.142 58.3669H52.4935V59.9272C52.4935 60.057 52.4935 60.1869 52.3641 60.1869C52.2348 60.3168 52.2348 60.3168 52.1055 60.3168C51.9762 60.3168 51.8469 60.3168 51.8469 60.1869C51.7175 60.0571 51.7175 60.057 51.7175 59.9272V56.0236C51.7175 55.8957 51.7175 55.7659 51.8469 55.7659C51.9762 55.636 51.9762 55.6359 52.1055 55.6359H53.7886C54.0008 55.6188 54.2144 55.6448 54.4164 55.7124C54.6184 55.78 54.8047 55.8879 54.9642 56.0295C55.2248 56.3112 55.3654 56.684 55.3561 57.0683C55.3488 57.3892 55.2597 57.7028 55.0974 57.9793C54.8441 58.2268 54.5328 58.406 54.1922 58.5006C54.3196 58.5006 54.4489 58.6285 54.5841 58.6285C54.7134 58.7584 54.8427 58.7584 54.8427 59.0221L55.4893 59.9311C55.3443 59.9311 55.4737 59.9311 55.4737 60.0629V60.0511ZM46.6565 58.4909H48.4689L47.5637 56.541L46.6565 58.4909ZM49.8855 60.0511C49.8855 60.181 49.8856 60.181 49.7562 60.3109C49.6269 60.4407 49.6288 60.4407 49.4976 60.4407H49.2409L49.1116 60.3109L48.7197 59.4018H46.3881L45.9962 60.1889C45.9967 60.2056 45.9939 60.2222 45.988 60.2379C45.9821 60.2535 45.9731 60.2677 45.9616 60.2798C45.9501 60.2919 45.9363 60.3015 45.921 60.3082C45.9058 60.3149 45.8894 60.3184 45.8728 60.3187H45.6102C45.4809 60.3187 45.3496 60.3187 45.3496 60.1889C45.2222 60.059 45.2223 60.059 45.2223 59.9291V59.7993L47.0347 55.7678C47.0347 55.6379 47.164 55.6379 47.164 55.508C47.2933 55.508 47.2933 55.3801 47.4226 55.3801C47.5519 55.3801 47.5519 55.3801 47.6812 55.508C47.8105 55.508 47.8106 55.6379 47.8106 55.7678L49.623 59.7993C49.9031 59.9232 49.9032 59.9233 49.9032 60.0551L49.8855 60.0511ZM42.8945 59.5317C42.9626 59.4804 43.0199 59.4161 43.0631 59.3425C43.1064 59.2689 43.1347 59.1874 43.1465 59.1028C43.1584 59.0181 43.1535 58.932 43.1321 58.8493C43.1107 58.7665 43.0732 58.6889 43.0219 58.6207C42.985 58.5723 42.9422 58.5287 42.8945 58.4909C42.676 58.3069 42.3955 58.2139 42.1108 58.2312H40.9351V59.6615H42.1108C42.5026 59.6615 42.7593 59.6615 42.8945 59.5297V59.5317ZM40.9508 57.5799H42.1264C42.775 57.5799 43.0317 57.3202 43.0317 56.9306C43.0304 56.83 43.0067 56.7308 42.9623 56.6406C42.9179 56.5504 42.8539 56.4713 42.775 56.4092C42.5803 56.2917 42.3511 56.2459 42.1264 56.2794H41.0899V57.5799H40.9508ZM43.6704 58.2291C43.8342 58.459 43.9245 58.7336 43.9291 59.0162C43.9465 59.189 43.9196 59.3634 43.851 59.5228C43.7824 59.6823 43.6744 59.8214 43.5372 59.9272C43.3776 60.0688 43.1913 60.1766 42.9893 60.2442C42.7873 60.3118 42.5738 60.3379 42.3615 60.3207H40.6804C40.5511 60.3207 40.4218 60.3207 40.4218 60.1928C40.2925 60.063 40.2925 60.063 40.2925 59.9311V56.0295C40.2925 55.9016 40.2925 55.7717 40.4218 55.7717C40.5511 55.6419 40.5511 55.6419 40.6804 55.6419H42.3635C42.5758 55.6248 42.7892 55.6507 42.9912 55.7183C43.1932 55.7859 43.3796 55.8937 43.5391 56.0353C43.6664 56.1495 43.7673 56.2902 43.835 56.4475C43.9027 56.6048 43.9354 56.775 43.931 56.9463C43.9251 57.1869 43.8333 57.4174 43.6724 57.5957C43.5244 57.7573 43.3485 57.8906 43.1532 57.9892C43.3475 58.021 43.5277 58.1107 43.6704 58.2469" fill="white"/>
<path d="M12.0814 7.94495H9.72031V13.09H8.11951V0.763397H12.0814C14.9695 0.763397 16.3254 2.35707 16.3254 4.37183C16.3254 6.24099 15.1282 7.94495 12.0814 7.94495ZM12.0814 6.61881C13.9134 6.61881 14.6873 5.75304 14.6873 4.37183C14.6873 2.93946 13.9036 2.09146 12.0814 2.09146H9.72031V6.61677L12.0814 6.61881Z" fill="white"/>
<path d="M22.5405 13.2435C21.5538 13.2509 20.5872 12.9641 19.763 12.4194C18.9388 11.8747 18.2941 11.0966 17.9106 10.1837C17.5271 9.27076 17.422 8.26412 17.6087 7.29121C17.7954 6.3183 18.2654 5.42288 18.9593 4.71843C19.6531 4.01397 20.5396 3.5321 21.5063 3.33392C22.4731 3.13574 23.4766 3.2302 24.3899 3.6052C25.3032 3.98021 26.0851 4.61893 26.6366 5.44052C27.1881 6.26211 27.4844 7.22954 27.4879 8.22034C27.5184 8.88342 27.4117 9.54569 27.1745 10.1653C26.9374 10.7849 26.575 11.3484 26.1102 11.8204C25.6453 12.2923 25.0881 12.6625 24.4738 12.9074C23.8594 13.1523 23.2011 13.2668 22.5405 13.2435ZM22.5405 11.8289C23.0016 11.8358 23.4589 11.7448 23.8826 11.562C24.3062 11.3792 24.6867 11.1086 24.9991 10.768C25.3115 10.4274 25.5487 10.0244 25.6954 9.58539C25.842 9.14637 25.8946 8.6812 25.8499 8.22034C25.8968 7.7644 25.8473 7.30365 25.7046 6.86826C25.5619 6.43287 25.3292 6.03272 25.0218 5.69391C24.7143 5.3551 24.3391 5.08535 23.9206 4.90228C23.5021 4.71922 23.0499 4.62695 22.5934 4.6316C21.7128 4.72624 20.8976 5.14284 20.3032 5.80211C19.7088 6.46137 19.3767 7.31722 19.3702 8.20653C19.3636 9.09583 19.6832 9.95651 20.2678 10.6245C20.8525 11.2925 21.6614 11.7212 22.5405 11.8289Z" fill="white"/>
<path d="M28.4539 3.39395H30.0919L32.3118 11.5278L34.7062 3.39395H36.3443L38.6857 11.5455L40.8684 3.39395H42.4535L39.442 13.0842H37.7883L35.4723 5.38707L33.1466 13.0782H31.4909L28.4539 3.39395Z" fill="white"/>
<path d="M48.222 13.2436C47.5703 13.2629 46.9218 13.1443 46.3187 12.8956C45.7155 12.6468 45.1712 12.2734 44.7211 11.7998C44.271 11.3261 43.9251 10.7625 43.706 10.1459C43.4868 9.52924 43.3993 8.87321 43.449 8.22038C43.3957 7.56852 43.481 6.91279 43.6993 6.29656C43.9176 5.68033 44.264 5.1177 44.7154 4.64618C45.1668 4.17466 45.7129 3.80502 46.3175 3.56166C46.9221 3.31829 47.5713 3.20678 48.222 3.23465C48.8366 3.20505 49.4506 3.30457 50.0247 3.52671C50.5989 3.74886 51.1206 4.08883 51.5565 4.52489C51.9924 4.96094 52.3329 5.48346 52.5563 6.05914C52.7797 6.63483 52.8811 7.25103 52.854 7.86828C52.8544 8.19301 52.8367 8.51742 52.8011 8.84016H45.0871C45.0874 9.24856 45.1694 9.65278 45.3284 10.0287C45.4874 10.4046 45.7201 10.7445 46.0125 11.0283C46.305 11.3121 46.6513 11.5338 47.0309 11.6805C47.4105 11.8272 47.8155 11.8957 48.222 11.882C48.807 11.9278 49.3905 11.7774 49.8813 11.4545C50.372 11.1316 50.7422 10.6543 50.9338 10.0975H52.66C52.3872 11.0507 51.7987 11.882 50.9919 12.454C50.185 13.026 49.2079 13.3046 48.222 13.2436ZM45.1066 7.53768H51.1983C51.2125 7.13776 51.1424 6.73943 50.9926 6.36861C50.8428 5.9978 50.6166 5.66288 50.329 5.38593C50.0413 5.10897 49.6986 4.8962 49.3234 4.76146C48.9481 4.62673 48.5488 4.57313 48.1515 4.60415C47.3614 4.58779 46.597 4.88677 46.0262 5.43564C45.4553 5.98451 45.1246 6.73838 45.1066 7.53179V7.53768Z" fill="white"/>
<path d="M56.5766 13.0842H54.9739V3.39396H56.5766V4.96808C56.8687 4.40243 57.3194 3.93502 57.8731 3.62381C58.4268 3.31259 59.0591 3.1712 59.692 3.21695V4.87946H59.2708C57.7385 4.87946 56.5766 5.57012 56.5766 7.81311V13.0842Z" fill="white"/>
<path d="M65.7191 13.2436C65.0674 13.2629 64.4189 13.1443 63.8157 12.8956C63.2126 12.6468 62.6683 12.2734 62.2182 11.7998C61.7681 11.3261 61.4222 10.7625 61.2031 10.1459C60.9839 9.52924 60.8964 8.87321 60.9461 8.22038C60.8927 7.56852 60.978 6.91279 61.1964 6.29656C61.4147 5.68033 61.7611 5.1177 62.2125 4.64618C62.6639 4.17466 63.21 3.80502 63.8146 3.56166C64.4191 3.31829 65.0684 3.20678 65.7191 3.23465C66.3337 3.20505 66.9477 3.30457 67.5219 3.52671C68.096 3.74886 68.6177 4.08883 69.0536 4.52489C69.4895 4.96094 69.83 5.48346 70.0534 6.05914C70.2768 6.63483 70.3782 7.25103 70.3511 7.86828C70.3515 8.19301 70.3338 8.51742 70.2981 8.84016H62.5841C62.5847 9.24848 62.667 9.65255 62.8261 10.0283C62.9852 10.4041 63.2178 10.744 63.5103 11.0277C63.8027 11.3114 64.1489 11.5333 64.5283 11.68C64.9078 11.8268 65.3127 11.8955 65.7191 11.882C66.3041 11.9278 66.8876 11.7774 67.3783 11.4545C67.8691 11.1316 68.2393 10.6543 68.4309 10.0975H70.1571C69.8846 11.0509 69.2962 11.8824 68.4892 12.4545C67.6822 13.0265 66.7051 13.3049 65.7191 13.2436ZM62.6037 7.53768H68.6954C68.7102 7.13726 68.6404 6.73824 68.4907 6.36681C68.341 5.99538 68.1148 5.65998 67.8269 5.38256C67.5389 5.10514 67.1959 4.89198 66.8201 4.75714C66.4443 4.6223 66.0444 4.56883 65.6466 4.60018C64.8563 4.58489 64.0921 4.88489 63.5217 5.43444C62.9513 5.98399 62.6212 6.73821 62.6037 7.53179V7.53768Z" fill="white"/>
<path d="M76.4682 3.23459C77.1745 3.22375 77.8721 3.3914 78.497 3.72215C79.1218 4.0529 79.6538 4.5362 80.044 5.12743V0H81.6625V13.0842H80.044V11.2622C79.6814 11.8896 79.1551 12.4058 78.5219 12.755C77.8886 13.1042 77.1724 13.2731 76.4506 13.2435C75.8135 13.2364 75.1846 13.0977 74.6032 12.8362C74.0217 12.5747 73.5 12.1959 73.0706 11.7233C72.6411 11.2507 72.3131 10.6945 72.1068 10.0891C71.9005 9.48382 71.8204 8.84231 71.8715 8.20459C71.8198 7.56867 71.9005 6.92892 72.1085 6.32604C72.3165 5.72316 72.6473 5.17043 73.0797 4.70292C73.5121 4.23541 74.0366 3.86338 74.62 3.61059C75.2034 3.35781 75.8328 3.22975 76.4682 3.23459ZM76.7679 4.63159C76.3136 4.62965 75.8639 4.72318 75.4477 4.90611C75.0314 5.08904 74.6579 5.3573 74.3511 5.69377C74.0442 6.03024 73.8109 6.42743 73.666 6.85984C73.521 7.29224 73.4677 7.75029 73.5095 8.20459C73.5636 8.84221 73.8015 9.45021 74.1941 9.95428C74.5867 10.4584 75.117 10.8367 75.7203 11.043C76.3235 11.2493 76.9735 11.2747 77.5909 11.116C78.2083 10.9574 78.7663 10.6216 79.1966 10.1497C79.627 9.67772 79.9112 9.09006 80.0144 8.45858C80.1176 7.82709 80.0353 7.17903 79.7777 6.59372C79.5201 6.00841 79.0983 5.51121 78.5638 5.16274C78.0293 4.81427 77.4052 4.62969 76.7679 4.63159Z" fill="white"/>
<path d="M94.3004 3.23459C94.9348 3.23042 95.5631 3.35913 96.1452 3.61239C96.7274 3.86566 97.2506 4.23793 97.6814 4.70556C98.1123 5.17319 98.4413 5.72587 98.6476 6.32832C98.8539 6.93078 98.9328 7.56978 98.8794 8.20459C98.9305 8.84231 98.8505 9.48382 98.6442 10.0891C98.4379 10.6945 98.1098 11.2507 97.6804 11.7233C97.2509 12.1959 96.7292 12.5747 96.1477 12.8362C95.5663 13.0977 94.9375 13.2364 94.3004 13.2435C93.5803 13.2737 92.8654 13.1091 92.2305 12.7668C91.5956 12.4244 91.064 11.917 90.6913 11.2976V13.0842H89.0885V0H90.6913V5.19036C91.0678 4.57384 91.5999 4.06825 92.2337 3.7248C92.8676 3.38134 93.5805 3.21218 94.3004 3.23459ZM93.9673 4.63159C93.2439 4.56606 92.5177 4.72199 91.8842 5.0788C91.2507 5.43561 90.7396 5.97654 90.4182 6.63059C90.0967 7.28463 89.98 8.02112 90.0833 8.74307C90.1865 9.46502 90.505 10.1387 90.9969 10.6754C91.4887 11.2121 92.1308 11.5868 92.8387 11.7501C93.5466 11.9134 94.2871 11.8576 94.9629 11.5903C95.6387 11.3229 96.218 10.8564 96.6247 10.2521C97.0314 9.6478 97.2464 8.93394 97.2414 8.20459C97.2827 7.74908 97.2286 7.28994 97.0825 6.85671C96.9364 6.42348 96.7016 6.02579 96.3932 5.68921C96.0848 5.35263 95.7096 5.08467 95.2918 4.90251C94.874 4.72035 94.4228 4.62805 93.9673 4.63159Z" fill="white"/>
<path d="M107.657 3.39395H109.313L103.502 17.6449H101.846L103.748 12.9779L99.8552 3.39395H101.634L104.663 11.2464L107.657 3.39395Z" fill="white"/>
<path d="M119.517 13.2081C117.053 13.2081 115.309 11.8309 115.273 9.79449H116.982C117.01 10.0979 117.099 10.3926 117.243 10.6611C117.386 10.9295 117.582 11.1664 117.819 11.3577C118.055 11.549 118.327 11.6908 118.619 11.7748C118.911 11.8587 119.216 11.8831 119.517 11.8466C121.067 11.8466 121.982 10.9632 121.982 9.79449C121.982 6.47132 115.344 8.59223 115.344 4.01377C115.344 1.97934 116.982 0.600129 119.412 0.600129C120.368 0.486636 121.33 0.754901 122.091 1.34708C122.852 1.93926 123.35 2.80796 123.479 3.76591H121.716C121.608 3.22628 121.306 2.74553 120.867 2.41587C120.428 2.08622 119.883 1.93079 119.337 1.97935C118.017 1.94393 116.986 2.63462 116.986 3.95877C116.986 7.14421 123.607 5.16289 123.607 9.72364C123.582 10.2278 123.454 10.7214 123.232 11.1741C123.009 11.6267 122.697 12.0287 122.314 12.3553C121.93 12.6818 121.485 12.9261 121.004 13.0728C120.523 13.2195 120.017 13.2655 119.517 13.2081Z" fill="white"/>
<path d="M126.32 4.72009H125.072V3.39395H126.32V0.954224H127.923V3.39395H130.441V4.72009H127.923V10.426C127.923 11.3822 128.274 11.7167 129.261 11.7167H130.437V13.0782H128.993C127.284 13.0782 126.316 12.3719 126.316 10.426L126.32 4.72009Z" fill="white"/>
<path d="M136.362 3.23462C137.078 3.2035 137.789 3.36606 138.421 3.70525C139.052 4.04445 139.582 4.54791 139.954 5.16289V3.39206H141.574V13.0822H139.954V11.2779C139.583 11.9008 139.053 12.412 138.418 12.7582C137.783 13.1043 137.066 13.2727 136.344 13.2455C135.709 13.2365 135.082 13.0966 134.502 12.8342C133.922 12.5718 133.402 12.1926 132.975 11.7201C132.547 11.2476 132.221 10.692 132.016 10.0876C131.811 9.48323 131.731 8.84304 131.783 8.20666C131.731 7.57202 131.811 6.93338 132.017 6.33136C132.224 5.72933 132.553 5.17708 132.984 4.70956C133.414 4.24204 133.937 3.86944 134.519 3.61555C135.1 3.36165 135.728 3.23192 136.362 3.23462ZM136.678 4.63162C136.223 4.62996 135.774 4.72369 135.358 4.90674C134.942 5.08979 134.569 5.35808 134.262 5.69452C133.955 6.03097 133.722 6.42808 133.577 6.86035C133.433 7.29262 133.379 7.75048 133.421 8.20462C133.476 8.84173 133.714 9.44916 134.106 9.95263C134.499 10.4561 135.029 10.8338 135.632 11.0397C136.235 11.2455 136.884 11.2706 137.501 11.1119C138.118 10.9531 138.675 10.6173 139.105 10.1456C139.535 9.6739 139.819 9.08664 139.922 8.45561C140.025 7.82457 139.943 7.17715 139.685 6.59231C139.428 6.00747 139.006 5.5106 138.472 5.16241C137.938 4.81423 137.314 4.62975 136.678 4.63162Z" fill="white"/>
<path d="M158.223 7.60262C158.223 5.62131 157.167 4.61385 155.584 4.61385C153.963 4.61385 152.852 5.65862 152.852 7.74421V13.0842H151.271V7.60262C151.271 5.62131 150.215 4.61385 148.628 4.61385C147.009 4.61385 145.898 5.65862 145.898 7.74421V13.0842H144.296V3.39399H145.898V4.79098C146.229 4.28778 146.683 3.87854 147.216 3.60282C147.75 3.32711 148.345 3.19427 148.945 3.21698C149.685 3.17213 150.42 3.3554 151.053 3.74225C151.686 4.12909 152.186 4.70096 152.486 5.38122C152.771 4.71625 153.249 4.15357 153.859 3.76722C154.469 3.38088 155.181 3.18906 155.901 3.21698C156.442 3.18832 156.982 3.2781 157.485 3.48009C157.988 3.68208 158.441 3.99146 158.813 4.38676C159.185 4.78206 159.466 5.2538 159.638 5.76935C159.811 6.2849 159.869 6.8319 159.81 7.37241V13.0782H158.225L158.223 7.60262Z" fill="white"/>
<path d="M167.657 3.2346C168.291 3.23192 168.919 3.36163 169.5 3.6154C170.082 3.86917 170.604 4.24151 171.035 4.70881C171.465 5.17611 171.794 5.72822 172.001 6.33001C172.208 6.9318 172.288 7.57011 172.236 8.2046C172.287 8.84231 172.207 9.48383 172.001 10.0891C171.795 10.6945 171.467 11.2507 171.037 11.7233C170.608 12.1959 170.086 12.5747 169.505 12.8362C168.923 13.0977 168.294 13.2364 167.657 13.2435C166.94 13.2586 166.23 13.0875 165.597 12.7466C164.965 12.4057 164.43 11.9066 164.046 11.2976V17.6822H162.439V3.39396H164.04V5.18052C164.418 4.56379 164.951 4.05874 165.587 3.71688C166.222 3.37501 166.937 3.20855 167.657 3.2346ZM167.322 4.63159C166.599 4.56647 165.873 4.72268 165.24 5.07976C164.606 5.43685 164.096 5.97804 163.774 6.63215C163.453 7.28626 163.337 8.02268 163.44 8.74451C163.544 9.46635 163.863 10.1399 164.354 10.6764C164.846 11.2129 165.489 11.5873 166.196 11.7505C166.904 11.9136 167.645 11.8577 168.32 11.5903C168.996 11.3228 169.575 10.8562 169.982 10.2519C170.388 9.64758 170.603 8.93387 170.598 8.2046C170.64 7.74892 170.585 7.2896 170.439 6.85624C170.293 6.42287 170.058 6.02511 169.749 5.68849C169.441 5.35188 169.065 5.08395 168.647 4.90191C168.229 4.71988 167.778 4.62778 167.322 4.63159Z" fill="white"/>
<path d="M178.53 13.2435C177.878 13.2628 177.23 13.1442 176.627 12.8955C176.023 12.6467 175.479 12.2734 175.029 11.7997C174.579 11.326 174.233 10.7624 174.014 10.1458C173.795 9.52915 173.707 8.87312 173.757 8.22029C173.703 7.56835 173.788 6.91248 174.006 6.29611C174.225 5.67973 174.571 5.11708 175.022 4.64548C175.474 4.17389 176.02 3.80409 176.625 3.56084C177.23 3.31759 177.879 3.20637 178.53 3.23456C179.144 3.20524 179.758 3.30495 180.332 3.52722C180.906 3.74949 181.427 4.08949 181.863 4.52552C182.299 4.96154 182.639 5.48398 182.862 6.05953C183.086 6.63508 183.187 7.25111 183.16 7.86819C183.16 8.19285 183.143 8.51721 183.109 8.84007H175.395C175.395 9.24847 175.477 9.65269 175.636 10.0286C175.795 10.4045 176.028 10.7444 176.32 11.0282C176.613 11.312 176.959 11.5337 177.339 11.6804C177.718 11.8271 178.123 11.8956 178.53 11.8819C179.115 11.9274 179.698 11.7769 180.189 11.454C180.679 11.1311 181.05 10.6541 181.242 10.0974H182.966C182.693 11.0503 182.105 11.8813 181.299 12.4533C180.492 13.0253 179.515 13.304 178.53 13.2435ZM175.413 7.53758H181.504C181.518 7.13785 181.448 6.73967 181.299 6.369C181.149 5.99833 180.923 5.6636 180.636 5.38667C180.348 5.10975 180.006 4.89684 179.631 4.76197C179.256 4.6271 178.857 4.57333 178.459 4.60405C177.669 4.58769 176.904 4.88662 176.333 5.43543C175.762 5.98424 175.431 6.73811 175.413 7.5317V7.53758Z" fill="white"/>
<path d="M186.883 13.0842H185.282V3.394H186.883V4.96813C187.175 4.40232 187.626 3.93494 188.18 3.62373C188.734 3.31252 189.367 3.1711 190 3.21699V4.8795H189.577C188.046 4.8795 186.883 5.57016 186.883 7.81315V13.0842Z" fill="white"/>
</svg>
